<svg width="662" height="374" xmlns="http://www.w3.org/2000/svg" xmlns:xlink="http://www.w3.org/1999/xlink"><defs><path id="a" d="M0 0h660v372H0z"/></defs><g fill="none" fill-rule="evenodd"><path d="M1 1h660v372H1z" fill="#FFF" fill-rule="nonzero" stroke="#F2F2F2"/><g transform="translate(1 1)"><mask id="b" fill="#fff"><use xlink:href="#a"/></mask><g fill="#B40010" fill-rule="nonzero" mask="url(#b)"><path d="M418.898 185.549c-.03.008-3.417 2.015-12.922.55.14-.412.343-1.014.577-1.714v-.008c.618-1.885 1.426-4.528 1.773-6.391.679-.202 2.663-.647 5.868-.169.278.014.553-.163.586-.453a.51.51 0 0 0-.432-.583c-1.476-.222-2.68-.252-3.675-.197v-13.072a.515.515 0 0 0-.69-.49l-12.864 4.504c.41-3.823-.668-6.814-1.146-7.923.74-.404 2.089-1.34 2.848-3.309.324-.854.494-1.805.514-2.828 1.044 1.073 2.99 2.557 6.25 3.163.39.024 9.39.58 12.106 9.893 1.883 6.507 3.887 17.426 1.207 19.027zm-4.247 47.242-77.378 18.405-.223-3.35 77.6-18.43v3.375zm-3.37 9.186-10.852 2.209-.08-.304h1.399l2.56-.517h-4.102l-.454-1.672h11.48l.197-.515h-11.828l-.456-1.68h12.922l.192-.514h-13.252l-.096-.335c-.057-.263-.332-.42-.599-.376l-5.066 1.13a.491.491 0 0 0-.327.233.477.477 0 0 0-.069.395l1.322 5.427-15.893 3.231-.118-.426h2.037l2.559-.517h-4.748l-.472-1.672h13.439l2.553-.509h-16.14l-.443-1.55c-.02-.058-.069-.089-.105-.133h16.795l-.126-.517h-18.862l7.026-1.672h11.432l-.138-.515h-9.104l7.029-1.68h2.053c.055-.022.086-.08.143-.094l1.897-.42h-1.916l7.034-1.673h12.793l.198-.52h-10.822l7.042-1.67h4.415l.195-.522h-2.43l2.837-.671-3.051 8.05zm-5.393 26.098h-5.127l-5.453-22.316c0-.008.008-.008.008-.008l-.008-.003-1.33-5.44 4.078-.904 1.496 5.476c.002.005-.006.014-.006.014 0 .01.011.01.011.01l6.33 23.171zm2.366 1.037v4.064H250.845v-3.973l65.27-.036a.465.465 0 0 0 .209.058h12.125c.058 0 .102-.055.154-.066l79.651-.047zm-146.752-32.017 4.066.91-1.215 4.796c-.017.042-.055.05-.066.1-.006.027.02.058.016.088-.027.039-.022.094-.027.147l-6.314 24.94h-5.121l8.661-30.98zm-5.761 12.097-.121-1.526h1.79l.142-.511h-1.97l-.119-1.518h2.513l.154-.514h-2.71l-.119-1.518h3.244l.148-.514h-3.43l-.149-1.857 3.903.931-2.99 10.668-.25-3.127h1.06l.146-.514h-1.242zm-4.558-9.965-3.213-7.31 1.913.501h-1.589l.226.512h3.326l6.418 1.67h-9.008l.234.522h10.767l6.413 1.67h-1.658l1.413.303a.64.64 0 0 1 .278.216h1.954l6.405 1.673h-8.57l-.13.514h10.687l6.413 1.68H265.94l-.132.515h19.656l6.405 1.672h-3.425c0 .036.028.06.02.088l-.113.429h5.494l6.435 1.683h-12.35l-.124.509h14.432l6.41 1.672h-21.26l-.03.106 1.71.411h21.592l6.371 1.662h-3.686c.003.066.036.121.014.18l-.08.348h5.762l1.778.459-1.465 1.208h-6.484l-.132.517h5.981l-2.042 1.686h-2.298l1.784.42-.028.025-3.793-.912.92-3.752a.56.56 0 0 0-.068-.398.46.46 0 0 0-.324-.235l-5.066-1.127a.526.526 0 0 0-.61.376l-.352 1.205H296.06l2.169.528h8.463l-.486 1.667h-.984l.918.224-.006.027-18.881-4.517 1.102-4.4a.517.517 0 0 0-.063-.396.467.467 0 0 0-.324-.232l-5.075-1.128a.523.523 0 0 0-.602.368l-.368 1.299h-13.345l2.171.517h11.026l-.476 1.683h-3.562l2.168.509h1.248l-.085.296-15.6-3.73 1.235-4.898a.52.52 0 0 0-.058-.403.567.567 0 0 0-.327-.244l-5.074-1.11a.506.506 0 0 0-.602.372l-.124.434h-10.291l.222.52h9.924l-.465 1.673h-8.725l.113.243 1.157.27h7.301l-.459 1.665-4.467-1.07a.383.383 0 0 0-.31-.066l-3.335-.8zm-3.6-11.837 74.093 19.278-.22 3.34-73.874-19.262v-3.356zm-.916-36.381h2.251a.262.262 0 0 0 .267-.266c0-.14-.118-.249-.267-.249h-3.38c-.567-.395-.888-.917-.957-1.689a1.585 1.585 0 0 1-.03-.132h3.007a.253.253 0 0 0 .247-.26.253.253 0 0 0-.247-.257h-3.098c-.058-.376-.143-.901-.226-1.557h2.997c.14 0 .258-.11.258-.257a.263.263 0 0 0-.258-.262h-3.065c-.05-.429-.102-.904-.143-1.41h2.93a.264.264 0 0 0 .264-.27c0-.136-.118-.25-.264-.25h-2.974c-.036-.45-.069-.931-.09-1.434h3.064a.262.262 0 0 0 .264-.26.265.265 0 0 0-.264-.266h-3.087a37.404 37.404 0 0 1-.038-1.874h2.919a.259.259 0 0 0 0-.517h-2.92c.003-.602.023-1.219.056-1.846h2.864a.26.26 0 0 0 .255-.26.261.261 0 0 0-.255-.266h-2.842c.033-.544.082-1.114.145-1.67h2.903a.264.264 0 0 0 .264-.262.27.27 0 0 0-.264-.268h-2.848c.052-.462.113-.929.187-1.404h2.939a.259.259 0 0 0 0-.517h-2.854c.088-.548.204-1.103.32-1.656h2.86a.256.256 0 0 0 .248-.263.256.256 0 0 0-.247-.262h-2.738c.13-.528.267-1.059.423-1.584h2.763c.143 0 .258-.11.258-.255a.261.261 0 0 0-.258-.262h-2.609c.146-.459.308-.923.487-1.374h3.034a.268.268 0 0 0 .267-.263.267.267 0 0 0-.267-.262h-2.825c.239-.578.492-1.164.786-1.728h3.254a.258.258 0 0 0 .264-.257.257.257 0 0 0-.264-.263h-2.982c.289-.536.607-1.056.94-1.561h3.29a.266.266 0 0 0 .264-.266.26.26 0 0 0-.264-.262h-2.935c.313-.448.654-.896 1.02-1.325h3.262c.143 0 .256-.11.256-.254a.26.26 0 0 0-.256-.265h-2.782c.311-.343.646-.68.99-.995h3.576a.262.262 0 0 0 .264-.26.254.254 0 0 0-.264-.257h-3.004c.418-.351.857-.697 1.316-1.018h4.063c.14 0 .261-.119.261-.254a.257.257 0 0 0-.26-.263h-3.247c.387-.251.8-.472 1.22-.696h4.187c.093 0 .162-.058.209-.144-.196-.135-.405-.251-.564-.373h-2.79a22.927 22.927 0 0 1 1.57-.62c.08-.027.123-.104.181-.165h.044c.797.638 4.533 3.46 7.834 3.46.632 0 1.248-.104 1.828-.348 1.663-.699 2.713-2.421 3.13-5.116 1.367.21 7.695 1.429 10.564 5.752l-7.25 3.038-16.686-3.627a.522.522 0 0 0-.63.5l-.51 18.757a.537.537 0 0 0 .381.52l.668.196c-.511.124-1.042.224-1.514.224-.413-.03-4.093-.34-5.536 1.346a.517.517 0 1 0 .778.68c.94-1.078 3.686-1.078 4.711-.987 1.43 0 3.12-.62 4.063-1.023.074 1.664.497 5.598 2.787 9.369-2.435.807-11.446 3.615-15.649 2.369zm-.588-.219c.118.05.223.11.357.147-.134-.036-.244-.094-.357-.147zm5.657-38.211h2.776a.259.259 0 0 0 .264-.263.258.258 0 0 0-.264-.26h-3.252a7.919 7.919 0 0 1-.953-1.407h3.235a.257.257 0 0 0 .258-.26.255.255 0 0 0-.258-.257h-3.497a6.182 6.182 0 0 1-.41-1.152c-.082-.307-.14-.6-.203-.899h3.335a.264.264 0 0 0 .264-.262.265.265 0 0 0-.264-.257h-3.45c-.124-.578-.22-1.15-.289-1.698h3.362a.264.264 0 0 0 .258-.268.259.259 0 0 0-.258-.26h-3.425a17.338 17.338 0 0 1-.09-1.481h3.515a.259.259 0 0 0 .258-.26.259.259 0 0 0-.258-.26h-3.5c.01-.545.05-1.073.116-1.576h3.76a.263.263 0 0 0 .265-.265.259.259 0 0 0-.264-.254h-3.69c.094-.553.215-1.1.375-1.612h4.09a.259.259 0 0 0 .258-.26.257.257 0 0 0-.258-.26h-3.879c.176-.461.38-.9.616-1.327h4.233a.258.258 0 0 0 .264-.257.266.266 0 0 0-.264-.265h-3.947c.014-.02.025-.033.03-.058.275-.423.588-.799.91-1.156h4.283a.265.265 0 0 0 .26-.26.262.262 0 0 0-.26-.262h-3.794c.43-.417.863-.78 1.311-1.106h4.632c.146 0 .27-.113.27-.257a.266.266 0 0 0-.27-.257h-3.881c.503-.307.992-.542 1.454-.75h4.66a.26.26 0 0 0 .255-.262.262.262 0 0 0-.256-.262h-3.274c.638-.191 1.083-.282 1.11-.282 6.078-1.501 7.956 1.307 8.442 2.388l-8.31 3.798h-.002l-.066.028a.497.497 0 0 0-.217.202c-.008.008-.02.008-.028.022-.211.398-5.08 9.512-.953 16.03-2.403-.182-4.033-1.15-5.135-2.236zm-.412-.437c.129.138.258.282.395.415a7.963 7.963 0 0 1-.395-.415zm18.122 1.47c-.343 2.356-1.162 3.885-2.482 4.446-3.197 1.318-8.28-2.695-8.714-3.044-3.029-3.85-1.992-9.194-.849-12.547-.278 6.408 1.952 9.921 2.059 10.079.973 1.534 2.534 2.316 4.64 2.316 1.927 0 3.911-.655 5.346-1.25zm-2.592-17.934 4.027 7.69c.006.006.308.362.228.73-.085.376-.533.669-.901.832a.521.521 0 0 0-.272.636l.643 1.996c-.162.168-.47.409-.982.381-.321-.06-.538.194-.552.473a.51.51 0 0 0 .473.558 2.104 2.104 0 0 0 1.39-.376l.52 1.615s.264.544.121.986c-.082.219-.253.39-.558.528-.014.011-.412.23-1.017.517a.444.444 0 0 0-.23.105c-1.348.614-3.58 1.468-5.644 1.468-1.726 0-2.996-.619-3.774-1.835-.028-.047-2.897-4.531-1.583-12.589l8.111-3.715zm8.876 16.23a82.66 82.66 0 0 1-2.314.745l-.033.014c-.18-.058-.35-.1-.52-.146.17-.216.297-.465.393-.73.316-.926.052-1.852-.151-2.27l-.693-2.164a10.307 10.307 0 0 0 3.318 4.55zm-1.212-15.794c2.345-4.51 9.274-4.05 9.315-4.05 2.538.35 4.508 1.507 5.855 3.44 3.274 4.702 2.095 12.61 1.793 14.319a17.7 17.7 0 0 0-1.628-.395c.745-2.577.764-5.936.039-10.074-.011-.03-.028-.038-.039-.06.02-.083.052-.153.022-.241a.51.51 0 0 0-.643-.348c-2.765.846-14.035 1.169-14.153 1.169a.51.51 0 0 0-.498.528c0 .041.033.066.044.108-.011.038-.044.069-.044.116 0 .033.006.157.014.345h-1.155c-.019.177-.027.349-.052.523h1.242c.036.525.108 1.26.237 2.11h-1.454c.008.173.016.347.033.519h1.506c.09.566.209 1.16.355 1.783h-1.49c.055.168.088.348.154.525h1.468c.132.52.288 1.053.47 1.587h-1.19c.104.182.203.345.313.517h1.064c.274.735.596 1.462.973 2.142-6.394-4.686-2.702-14.173-2.551-14.563zm1.105 4.774c2.103-.058 10.118-.35 13.298-1.036.943 5.642.426 9.85-1.5 12.166-1.556 1.86-3.47 1.888-3.588 1.888-1.608.091-3.04-.46-4.224-1.573-3.343-3.13-3.906-9.977-3.986-11.445zM293.53 151.6c-.45 3.033-1.509 5.189-3.09 6.223-1.217.801-2.341.672-2.443.658-2.818.155-4.294-2.798-4.308-2.825-.096-.188-.266-.282-.505-.274a.516.516 0 0 0-.454.368c-.335 1.169-.943 2.092-1.338 2.606-1.713-2.15-4.143-3.494-6.306-4.312 1.058-.346 2.438-.813 3.51-1.274.104.11.198.226.305.329 1.306 1.232 2.873 1.846 4.637 1.846h.33c.176 0 2.48-.036 4.318-2.233a8.308 8.308 0 0 0 1.345-2.281c.662.122 2.15.462 4 1.17zm.204-8.284h3.12v7.79a28.433 28.433 0 0 0-3.492-1.526c.198-1.25.487-3.605.372-6.264zm.29-1.82h65.043v-2.443h-65.042v2.444zm3.063-4.942h2.103v-.517h-2.103v-1.667h2.103v-.517h-2.103v-1.678h2.103v-.514h-2.103v-1.678h2.103v-.52h-2.103v-1.67h2.103v-.519h-2.103v-1.672h2.103v-.514h-2.103v-1.673h2.103v-.514h-2.103v-1.47h2.103v-.52h-2.103v-1.673h2.103v-.52h-2.103v-1.67h2.103v-.519h-2.103v-1.664h2.103v-.52h-2.103v-1.68h2.103v-.512h-2.103v-1.675h2.103v-.514h-2.103v-1.672h2.103v-.52h-2.103v-1.675h2.103v-.517h-2.103v-1.664h2.103v-.526h-2.103v-1.672h2.103v-.514h-2.103v-1.675h2.103v-.52h-2.103v-1.631h2.117c0 .003-.009.005-.009.017v40.616h-2.108v-1.457zm1.061-44.323c1.061 0 1.921.876 1.921 1.951a1.93 1.93 0 0 1-1.92 1.938 1.942 1.942 0 0 1-1.944-1.938 1.95 1.95 0 0 1 1.943-1.951zm2.463 4.475c-.184-.091-.355-.157-.547-.276.17-.152.324-.315.459-.5l.088.776zm4.56 1.355c2.458-1.532 2.614-5.963 2.576-7.539h4.093a.536.536 0 0 0 .352-.135l19.629-18.45 19.64 18.45c.09.083.225.135.352.135h4.082c-.028 1.576.123 6.007 2.589 7.539 1.273.79 2.95.627 4.937-.385v57.388c-1.235.323-2.815.882-4.107 1.847v-14.375h.256a.522.522 0 0 0 .525-.517v-3.491c0-.089-.058-.15-.088-.221.437-.266.827-.584 1.118-.998 1.48-2.179.22-5.507.18-5.637-.006-.003-.012-.01-.012-.025.006-.036.039-.058.039-.096v-28.456a.507.507 0 0 0-.245-.437.49.49 0 0 0-.503-.025c-2.864 1.432-6.352-3.455-6.394-3.514a.472.472 0 0 0-.569-.19.511.511 0 0 0-.365.486v21.344a37.69 37.69 0 0 0-2.733-2.082v-21.89c0-.15-.06-.29-.173-.385l-18.1-16.586a.516.516 0 0 0-.696 0l-18.112 16.586a.505.505 0 0 0-.173.384v23.364a37.347 37.347 0 0 0-2.7 2.848.26.26 0 0 0-.112.13c-.052.06-.102.11-.154.177v-23.89a.52.52 0 0 0-.368-.486.487.487 0 0 0-.58.19c-.028.059-3.532 4.946-6.38 3.514a.501.501 0 0 0-.509.025.502.502 0 0 0-.239.437v34.916h-1.998V97.676c1.993 1.012 3.659 1.175 4.942.385zm-.176-7.539h1.718c.025 1.388-.085 5.416-2.092 6.643-.404.257-.896.337-1.432.324 1.507-1.568 1.768-5.474 1.806-6.967zm1.59-6.275c.062-.05 1.156-.967 1.288-2.3.698.614 1.504 1.778 1.08 3.738-.002.025.017.041.012.063a4.348 4.348 0 0 0-.24 1.123c-.071 1.117.328 2.045.657 2.615h-3.779c-.248-.349-.77-1.225-.698-2.33.068-1.026.646-2.002 1.68-2.909zm4.85-.232c.064-.052 1.166-.967 1.298-2.3.47.423 1 1.095 1.155 2.112 0 .008.005.008.005.014-.005.044-.027.094-.03.144-.077 1.274.467 2.239.772 2.678l-3.004 2.823h-1.025c-.009-.02-.003-.05-.02-.067 0-.013-.926-1.078-.83-2.501.069-1.023.638-1.999 1.68-2.903zm5.21-2.955c.063-.039 1.168-.954 1.289-2.283.69.602 1.492 1.772 1.077 3.734 0 .017.009.017.009.034l-3.61 3.391c-.225-.353-.574-1.025-.516-1.899.066-1.014.665-2.018 1.75-2.977zm4.895-4.912c.055-.047 1.119-.929 1.284-2.217.728.685 1.602 1.951 1.25 3.862l-3.628 3.414a3.841 3.841 0 0 1-.448-1.023c-.016-.042-.036-.08-.052-.133a3.147 3.147 0 0 1-.088-.992c.066-1.029.635-2.002 1.682-2.911zm4.882-4.003c.052-.044.957-.771 1.155-1.852.626.62 1.3 1.7 1.011 3.262l-3.112 2.922c-.228-.34-.585-.993-.536-1.841.055-.874.556-1.722 1.482-2.49zm3.48.177-.223.213c-.01-.119-.016-.238-.035-.36.09.059.181.108.258.147zm4.233-.105c-.02.144-.03.282-.036.434l-.288-.268c.102-.047.211-.113.324-.166zm-4.634-8.415c.404-.044.844-.03 1.168.141.187.103.42.075.577-.06a.55.55 0 0 0 .157-.57c-.014-.008-.456-1.393.511-2.363.973.964.547 2.305.533 2.377a.514.514 0 0 0 .149.556.53.53 0 0 0 .585.06c.325-.171.756-.185 1.163-.14-.613.873-.382 1.945-.088 2.507.833 1.454 1.056 2.67.674 3.626-.49 1.228-1.889 1.642-1.91 1.642-.017.006-.02.02-.031.028l-.767-.719c-.184-.177-.6-.177-.789 0l-.71.664c-.304-.108-1.376-.553-1.802-1.609-.388-.954-.165-2.17.679-3.657.288-.545.514-1.612-.1-2.483zm6.71 6.491c.2 1.08 1.105 1.808 1.146 1.833.929.788 1.435 1.628 1.498 2.493.058.89-.366 1.617-.591 1.946l-3.057-2.87c-.003-.002 0-.002 0-.002-.36-1.656.36-2.77 1.003-3.4zm4.76 3.627c.154 1.3 1.224 2.18 1.27 2.225 1.056.912 1.63 1.885 1.696 2.914.025.35-.016.677-.08.967l-.074.188c-.137.473-.33.846-.486 1.078l-3.563-3.342v-.008c-.423-2.015.476-3.323 1.237-4.022zm3.777 6.712c.044-.114.074-.23.105-.354.23-.686.63-1.18.995-1.501.14 1.33 1.237 2.244 1.286 2.28 1.102.962 1.693 1.966 1.76 2.98.065.935-.336 1.648-.561 1.985l-3.593-3.37c.008-.055.044-.09.027-.14-.15-.733-.134-1.358-.019-1.88zm5.179 3.353c-.003-.047-.022-.091-.033-.141 0-.003.014-.009.014-.017.148-1.02.681-1.689 1.149-2.112.129 1.333 1.231 2.248 1.28 2.284 1.059.92 1.63 1.896 1.7 2.919.093 1.423-.834 2.488-.834 2.501-.01.017-.008.047-.022.067h-1.162l-2.92-2.745c.278-.37.908-1.363.828-2.756zm5.14 2.886a4.144 4.144 0 0 0-.247-1.13c-.003-.02.014-.037.008-.056-.412-1.96.393-3.124 1.089-3.738.123 1.333 1.225 2.25 1.278 2.298 1.05.91 1.616 1.885 1.696 2.91.063 1.106-.457 1.982-.704 2.33h-3.777c.333-.569.729-1.497.657-2.614zM360.2 97.5c-.434-.034-.83-.12-1.174-.335-1.995-1.227-2.11-5.255-2.091-6.643h1.454c.035 1.493.308 5.407 1.811 6.978zm5.272-5.27a1.95 1.95 0 0 1 1.944 1.952c0 1.07-.872 1.938-1.944 1.938a1.931 1.931 0 0 1-1.927-1.938c0-1.075.86-1.951 1.927-1.951zm3.967 43.815h4.192a.262.262 0 0 0 0-.522h-3.653c.046-.042.09-.1.142-.141a8.147 8.147 0 0 1 1.4-.91h4.697c.14 0 .245-.118.245-.262 0-.138-.105-.263-.245-.263h-3.46c1.352-.409 2.333-.287 2.383-.282 7.674.354 8.958 4.752 9.082 5.266-.083.05-.13.072-.132.078a9.389 9.389 0 0 0-1.454 1.197c-5.003-3.096-12.87-1.38-13.277-1.28-.357.127-1.462.506-1.528 1.343-.028.407.19.7.396.904l-.009.006c-.758 4.367-.687 7.853.176 10.477-.01.033-.041.036-.05.071-.024.064-.42 1.4-1.813 2.361-.613-.166-.984-.655-1.237-1.241h2.416c.14-.194.253-.36.33-.52h-2.95a7.363 7.363 0 0 1-.209-1.396h3.307a8.381 8.381 0 0 1-.124-.517h-3.205a9.586 9.586 0 0 1 .03-1.011c.003-.12.023-.222.03-.34h2.906c-.019-.16-.027-.34-.041-.515h-2.815c.041-.447.077-.895.121-1.33h2.581c-.008-.168.003-.345 0-.516h-2.507a28.58 28.58 0 0 1 .259-1.623h2.314c.014-.18.011-.334.025-.514h-2.254c.099-.47.206-.915.319-1.357h2.089c.02-.172.05-.343.071-.523h-2.042c.182-.658.388-1.29.608-1.885h1.352a.964.964 0 0 1-.107-.517h-1.023c.297-.746.64-1.424 1.006-2.045h3.629c.15 0 .255-.111.255-.263a.249.249 0 0 0-.255-.254h-3.326c.41-.633.874-1.184 1.355-1.676zm2.944-1.957c-.226.091-.457.183-.701.304a8.54 8.54 0 0 1 .7-.304zm19.56 3.9c-1.33 2.671-3.928 4.026-4.61 4.332-.904.293-1.64.658-2.328 1.048h-3.246c-.085.166-.16.346-.228.523h2.578a10.352 10.352 0 0 0-2.092 1.852h-1.06a7.955 7.955 0 0 0-.1.525h.748c-.643.86-.93 1.534-.976 1.658.017-1.152.27-4.284 2.468-6.706.02-.016.05-.016.072-.041.008-.017 0-.03.008-.047.42-.45.902-.877 1.476-1.252.044-.028 3.313-2.046 7.29-1.891zm-1.347 20.791c-4.665-2.084-7.586-9.689-7.606-9.763-.008-.014-.027-.02-.027-.028 4.472-4.96 10.371-5.366 12.114-5.366h.093c2.85 5.156 3.785 9.407 2.697 12.277-.866 2.28-2.675 2.924-2.771 2.966-1.51.597-3.015.572-4.5-.086zm5.49 8.733-12.048-3.458.302-2.712c.016-.009.036 0 .041-.017.935-.934 3.48-2.126 4.277-2.48.35.244.72.44 1.092.642h-2.359c-.322.152-.657.332-.987.522H391c.643.194 1.292.33 1.94.33.68 0 1.375-.139 2.062-.368.427.978 1.493 3.875 1.083 7.54zm.074 4.478c-.495.152-.808.641-.976 1.407-.047.163-.745 3.621 2.34 7.265l.697 6.477-1.6-.578c.655-1.73.806-4.249-.667-7.77-1.493-3.603-3.832-5.593-3.873-5.629-1.903-2.137-3.865-3.254-5.811-3.312a4.688 4.688 0 0 0-1.776.266l-.297-4.935 12.018 3.44.255 3.341c-.093 0-.203-.005-.31.028zm2.54 9.888c.321.263 2.465 1.869 6.294 2.297l-5.74 2.93-.554-5.227zm14.543 6.258c-.055.44-.12.987-.181 1.676h-17.95c.149.163.325.326.506.517h17.4c-.038.5-.074 1.061-.11 1.68h-8.546l.445.52h8.065c-.019.506-.04 1.075-.052 1.661h-6.578l.448.514h6.122c-.008.454-.011.935-.011 1.419h-4.896l.443.52h4.447c0 .439.017.93.025 1.404h-3.257l.445.525h2.82c.003.453.022.92.042 1.407h-1.644l.445.514h1.218c.027.539.044 1.05.077 1.62l-8.805-10.24a.53.53 0 0 0-.53-.173l-1.034.31h-5.404c.162.157.325.342.481.519h3.137l-2.557.735a85.31 85.31 0 0 0-3.672-3.89 6.565 6.565 0 0 0 1.591-1.868l.328.116h-.322a5.39 5.39 0 0 1-.374.514h2.111l.737.269a.543.543 0 0 0 .415-.033l6.1-3.113c-.22.647-.374 1.064-.38 1.083a.547.547 0 0 0 .044.443c.08.135.212.215.36.243 1.996.332 3.728.514 5.248.594h-9.825l-1.003.514h13.631zm.066-.475a15.52 15.52 0 0 1-.83.025h-.041c.31 0 .58-.017.871-.025zm.264 18.1h-10.14c.08.175.16.346.236.523h9.093l-2.226 1.407h-6.25c.07.174.145.338.219.526h5.212l-2.213 1.404h-2.455c.066.182.13.345.198.517h1.44l-1.242.782c-2.1-5.954-4.681-10.2-5.467-11.428 1.143-1.003 1.465-1.855 1.49-1.954a.538.538 0 0 0-.072-.467 58.025 58.025 0 0 0-2.383-2.941l4.58-1.327 1.195 1.387h-5.632c.143.172.28.34.42.514h5.652l1.223 1.419h-5.731c.137.18.278.337.415.52h5.759l1.215 1.404h-6.806c-.083.152-.204.32-.369.525h7.62l1.215 1.407h-9.395c.09.15.203.337.305.514h9.532l1.213 1.413h-9.937c.099.163.192.337.291.516h10.091l1.215 1.416h-10.577c.085.168.167.34.258.517h10.759l.805.931-.756.476zm-39.252 22.373c.04-.086.107-.175.195-.269h4.876a.26.26 0 0 0 .261-.257.257.257 0 0 0-.26-.262h-4.242c.64-.448 1.575-.935 2.6-1.369h4.723a.26.26 0 0 0 .252-.262.255.255 0 0 0-.252-.257h-3.398c.055-.02.115-.039.17-.07.383-.207.657-.489.905-.798h4.379c.145 0 .263-.105.263-.255a.264.264 0 0 0-.263-.262h-4.01c.21-.407.332-.854.411-1.302h4.12a.262.262 0 1 0 0-.525h-4.032c.042-.462.03-.899.006-1.3h4.027a.263.263 0 0 0 .264-.265.265.265 0 0 0-.264-.26h-4.08c-.043-.334-.09-.636-.129-.818.077-.102.149-.213.223-.31h4.876a.26.26 0 0 0 0-.522h-4.516c.256-.39.495-.79.718-1.214h4.97c.145 0 .263-.105.263-.249a.263.263 0 0 0-.264-.265h-4.689c.247-.464.47-.932.682-1.401h4.538a.26.26 0 0 0 .258-.269.253.253 0 0 0-.258-.248h-4.316c.201-.476.382-.932.55-1.383h4.654a.263.263 0 0 0 .258-.262.255.255 0 0 0-.258-.257h-4.467c.124-.346.236-.67.338-.982h4.816a.258.258 0 0 0 .258-.265.255.255 0 0 0-.258-.257h-4.645c.17-.542.305-1.015.41-1.399h4.713c.157 0 .267-.105.267-.251a.262.262 0 0 0-.267-.266h-4.58c.067-.257.108-.437.119-.486a.508.508 0 0 0-.382-.622.515.515 0 0 0-.621.384c-.025.11-2.548 11-7.345 12.39-.995.287-2.04.083-3.128-.523h3.573a.264.264 0 0 0 .259-.265c0-.138-.121-.26-.259-.26h-4.406a9.58 9.58 0 0 1-1.086-.904c-.03-.077-.052-.15-.077-.224h4.626a.253.253 0 0 0 .256-.26.255.255 0 0 0-.256-.262h-4.818c-.16-.412-.308-.821-.454-1.214h4.429c.145 0 .263-.105.263-.249a.263.263 0 0 0-.263-.265h-4.63c-.063-.155-.126-.32-.184-.47.006-.334.044-.627.077-.931h3.775a.26.26 0 0 0 .263-.269c0-.14-.118-.248-.263-.248h-3.733c.066-.5.162-.968.288-1.383h3.445a.262.262 0 0 0 .263-.262.254.254 0 0 0-.263-.257h-3.258a8.14 8.14 0 0 1 .685-1.47h2.086a.13.13 0 0 0 .096-.042.539.539 0 0 1-.184-.304c-.005-.058-.008-.114-.02-.166h-1.613c.536-.705 1.086-1.128 1.44-1.344.064.495.127.984.21 1.51a.51.51 0 0 0 .51.425h.091a.521.521 0 0 0 .421-.602c-.495-2.848-.63-5.352-.437-7.547.618-.95 3.975-1.133 6.231-.954 10.578.918 15.776-.881 18.31-2.604 1.553 2.438 9.316 15.48 8.043 29.999l-32.933 7.82c1-2.515.814-6.079.058-9.81zm-.817-3.32c.006.038.02.083.028.118h4.03c.03-.01.052-.024.087-.035-1.116.453-2.674 1.172-3.609 2.01-.16-.695-.349-1.397-.536-2.093zm5.396.707zm-1.341-3.198c.882-.343 1.676-.918 2.397-1.673.068.573.104 1.291-.017 1.977a3.43 3.43 0 0 1 .033-.304h-2.413zm-1.666.334a4.65 4.65 0 0 0 1.28-.188c.012 0 .017-.005.028-.008a4.584 4.584 0 0 1-1.308.196zm-2.911-2.186c.195.14.39.251.583.367-.193-.116-.393-.22-.583-.367zm1.196 1.852h-1.399c.033.13.082.28.118.426h7.023c-.146.693-.465 1.338-1.097 1.702a.994.994 0 0 0-.162.061h-5.242a56.87 56.87 0 0 0-.935-3.107c.572.401 1.13.71 1.694.918zm-37.79 24.622a.498.498 0 0 0-.405.528l.014.152c-.044-.1-.118-.177-.234-.177h-3.359c.163-.633.32-1.244.476-1.838h3.57a.256.256 0 1 0 0-.515h-3.43c.173-.644.338-1.255.506-1.843h3.82c.14 0 .254-.114.254-.26a.254.254 0 0 0-.253-.26h-3.678c.192-.694.38-1.332.547-1.924h3.768c.149 0 .262-.11.262-.254a.255.255 0 0 0-.262-.257h-3.62c.033-.097.064-.205.088-.296l.124-.44c.093-.334.234-.627.35-.942h3.872c.14 0 .261-.116.261-.26 0-.141-.12-.26-.26-.26h-3.682c.196-.462.405-.898.633-1.313h4.178a.25.25 0 0 0 .261-.252.255.255 0 0 0-.261-.262h-3.898c.3-.506.616-.968.946-1.396h3.963a.25.25 0 0 0 .253-.257.258.258 0 0 0-.253-.26h-3.554c.371-.448.74-.838 1.094-1.192h4.239a.26.26 0 0 0 .261-.262.262.262 0 0 0-.261-.255h-3.684a14.472 14.472 0 0 1 1.361-1.061h4.426a.256.256 0 0 0 .258-.257.258.258 0 0 0-.258-.266h-3.354a48.27 48.27 0 0 1 4.63-1.346c.076.05.159.103.26.103h.025a.466.466 0 0 0 .38-.26c2.842-.65 6.423-1.203 10.159-1.142.316-.022.52-.227.525-.509a.529.529 0 0 0-.503-.539c-3.706-.041-7.243.492-10.091 1.114.011-3.72 1.33-8.915 1.336-8.97a.515.515 0 0 0-.363-.636.52.52 0 0 0-.638.382c-.063.23-1.418 5.6-1.366 9.465a51.433 51.433 0 0 0-4.926 1.443 15.25 15.25 0 0 1-.816-2.098c.047.168.132.337.192.503h3.252c.146 0 .261-.11.261-.263a.259.259 0 0 0-.26-.257h-3.448c-.805-2.607-.907-5.33-.745-7.69h3.599a.25.25 0 0 0 .247-.257.253.253 0 0 0-.247-.26h-3.557a5.93 5.93 0 0 1-.03.376c.052-.68.123-1.33.208-1.932h3.576a.262.262 0 0 0 .256-.263.261.261 0 0 0-.256-.257h-3.493a29.56 29.56 0 0 1 .27-1.476h3.62c.11 0 .192-.07.222-.166-.03-.011-.055-.02-.09-.039 2.523.876 6.047 1.764 9.925 1.764 4.64 0 9.772-1.31 14.274-5.424 1.534 3.375 8.593 19.72 5.146 25.808l-36.614 8.705zm-62.544-58.41h3.783c.15 0 .258-.106.258-.255 0-.152-.107-.268-.258-.268h-3.64c.094-.351.17-.705.228-1.075h3.906c.135 0 .242-.11.242-.26 0-.144-.107-.26-.242-.26h-3.823c.044-.434.085-.865.099-1.288h4.25c.14 0 .25-.122.25-.26 0-.144-.11-.26-.25-.26H274.4c0-.5-.009-.981-.036-1.407h4.282c.14 0 .25-.113.25-.257 0-.15-.11-.265-.25-.265h-4.23c.074-.44.228-.868.473-1.275h3.757c.14 0 .25-.119.25-.26a.25.25 0 0 0-.25-.257h-3.41c1.577-2.06 4.906-3.549 6.58-4.196-2.191 6.076-.797 10.032-.731 10.2.626 1.767 2.25 2.762 4.692 2.925.192 1.145 1.119 2.223 1.756 2.82-3.854 2.167-7.867.788-7.924.768-3.906-1.233-6.221-1.835-7.576-2.134.407-.31.726-.694 1.009-1.108h3.936c.146 0 .264-.11.264-.257a.265.265 0 0 0-.264-.269h-3.601c.184-.345.346-.707.467-1.102zm23.783-11.694h-5.949l.047.186-.764-2.911v-.009c-.014-.066-1.086-5.614-5.962-6.872l.882-8.107a4.978 4.978 0 0 0 2.065.39c.066.016 1.734.229 3.42-1.073 1.604-1.252 2.643-3.442 3.127-6.463.995.442 2.067.981 3.134 1.647v23.212zm-2.279 10.01c.017 0 .06-.006.132 0h-.132a.51.51 0 0 0-.291.141.457.457 0 0 1 .291-.141zm-5.88 2.681c-.11.02-.22.045-.335.061.116-.016.231-.041.335-.06zm.803-.18c-.124.037-.256.062-.42.103.159-.041.296-.07.42-.102zm1.58-5.094-.063-.74c.54-.191.905-.496 1.089-.91.052-.11.063-.219.082-.332v.028h4.668v1.954h-5.775zm5.531 2.983-.305.826c-.096-.24-.22-.45-.382-.624-.08-.089-.17-.141-.253-.213.006.01.008.01.011.01h.93zm.187-.509h-5.495l-.148-1.661v-.003l-.044-.459.016.169h5.729v1.788l-.058.166zm-5.102-6.905h5.16v1.963h-4.643c.003.01 0 .022 0 .035-.03-.326-.135-.575-.146-.575v.014l-1.028-3.908h5.817v1.957h-5.3l.14.514zm-9.43-3.555 7.036-1.46 1.814 6.831s.157.301.05.536c-.09.2-.374.362-.808.448a.522.522 0 0 0-.407.559l.151 1.65a.83.83 0 0 1-.731.086.533.533 0 0 0-.646.342.528.528 0 0 0 .344.658c.197.07.39.091.582.091.195 0 .374-.041.547-.09l.113 1.263c.033.124.077.5-.077.743-.08.138-.228.227-.492.285-.017.003-1.98.591-4.038.591-2.391 0-3.881-.754-4.426-2.277-.016-.04-1.478-4.108.987-10.256zm-8.987 4.556a20.065 20.065 0 0 1-.39-1.913h2.078c.2-.175.407-.349.624-.512H273.8c5.127-4.097 12.5-7.505 14.09-8.218 1.177 1.296 1.721 2.833 1.93 3.616l-7.251 1.503c-.022.009-.03.023-.044.028-.008 0-.011-.005-.022 0-.3.089-6.355 2.082-8.453 5.496zm19.173 15.452a10.437 10.437 0 0 0-1.182-1.636c.009.002.011.008.014.022h1.457l.02-.091-.309 1.705zm-30.478 10.864h-3.455c-.03.163-.066.34-.086.52h3.337c-.2.489-.395.992-.558 1.5h-2.999c-.027.18-.04.343-.057.52h2.91a29.156 29.156 0 0 0-.4 1.507h-2.656c-.003.174-.02.345-.038.517h2.597c-.099.506-.2 1.006-.272 1.515h-2.375v.52h2.315c-.061.5-.124 1.006-.168 1.503h-2.117c.014.172.02.34.039.517h2.059a25.224 25.224 0 0 0-.07 1.504h-1.833c.03.174.039.345.072.522h1.762c-.006.504-.006 1.01.01 1.504h-1.467c.052.169.113.346.157.523h1.33c.022.508.047 1.014.085 1.5H260c.071.178.132.352.214.518h.698c.047.517.091 1.022.151 1.506-4.378-6.18-1.432-18.001-1.39-18.159.077-.4.181-.763.272-1.136.244.31.563.68.95 1.078h-1.19a.197.197 0 0 0-.008.058c-.013.014-.057.186-.112.46h1.847c.418.372.882.77 1.448 1.163-.046.11-.085.235-.134.34zm-2.447-4.415c2.777-8.992 9.497-10.59 10.03-10.69.259.006 2.01.155 8.953 2.356.102.044 1.488.522 3.44.522 1.657 0 3.718-.376 5.75-1.65.945.312 5.461 2.3 5.945 11.638-1.182.743-5.025 2.048-7.482 2.795-19.461 4.984-25.786-3.627-26.636-4.97zm33.835-11.054h-6.077c.206.207.395.381.55.517h5.475a6.017 6.017 0 0 0 .165 1.938c-.143 0-.259.01-.28.01h-2.376c.009.014.03.034.039.05-1.33-1.357-2.595-1.838-2.982-1.949-.512-.422-1.565-1.443-1.831-2.402.544-.02 1.075-.063 1.561-.132-.025 0-.038.008-.06.016h6.215c.04-.18.068-.345.096-.525h-3.799c.465-.116.833-.351 1.058-.724.28-.462.278-.968.245-1.255 0 .01 0 .022.003.022h2.782c-.014.05-.053.085-.053.135.006.937-.494 3.218-.706 4.056-.014.085-.014.16-.025.243zm6.072-9.145c.063-.188.21-.428.259-.464a.57.57 0 0 1 .277.227c.063.127.06.293-.025.564l-1.003 4.398c-.06.235.06.483.272.594.033.011 2.576 1.216 2.579 3.008-.003.038-.481 3.273-2.048 5.603-2.133-1.543-3.991-2.098-5.17-2.261-.138-.368-.375-1.239-.174-2.552.025-.11.536-2.17.68-3.574.032.033.062.055.079.083.354.403.445 1.235.264 2.36a.532.532 0 0 0 .385.595c.255.069.516-.086.61-.337l1.289-3.52a.527.527 0 0 0 .181-.384v-.116l1.545-4.224zm4.813-24.923h4.684l.594-.42h-5.275l.008-1.772h7.757l.6-.412h-8.357l.009-1.766h10.84l.603-.431h-11.443l.01-1.77h13.934l.594-.42h-14.527l.002-1.769h17.026l.594-.415h-17.62l.003-.149h17.88L305.01 160.97l.006-1.17h1.594l.6-.423h-2.194l.002-1.769zm40.418 1.77h-2.188l-2.493-1.77h4.67v-.42h-5.269l-2.493-1.772H345.425v-.412h-8.361l-2.494-1.766h10.855l-.01-.431H333.97l-2.498-1.77H345.414v-.42H330.88l-2.499-1.769h17.031v-.415h-17.625l-.208-.149h17.875l.038 12.686-1.643-1.17h1.6l-.012-.423zm7.125 17.182c-1.982-.9-3.675-1.067-3.793-1.08a16.53 16.53 0 0 0-2.265-.086l.033-12.39a.534.534 0 0 0-.28-.47.552.552 0 0 0-.237-.044h.022a.52.52 0 0 0 .525-.514.572.572 0 0 0-.03-.169l-.05-14.048a.514.514 0 0 0-.514-.523h-20.035a.516.516 0 0 0-.487.363.54.54 0 0 0 .192.594l20.075 14.203a.565.565 0 0 0 .28.094.426.426 0 0 0-.28.1l-19.286 14c-.456-.19-.912-.38-1.429-.527-.025-.008-.745-.271-1.855-.484l-18.357-13.003a.539.539 0 0 0-.277-.094.544.544 0 0 0 .277-.086l20.077-14.203a.543.543 0 0 0 .19-.594.515.515 0 0 0-.481-.363h-20.041a.52.52 0 0 0-.52.523l-.036 14.211a.49.49 0 0 0 .278.456c.069.05.154.064.225.064a.498.498 0 0 0-.225.044.526.526 0 0 0-.278.47l.036 14.217c0 .293.234.523.52.523h9.208c-1.21 1.033-2.312 2.468-3.175 4.472-.11.246-2.694 6.082-1.388 8.973.179.404.432.727.74.984-1.152.611-3.222 1.916-5.526 4.37a.464.464 0 0 0-.319.352 31.346 31.346 0 0 0-3.235 4.276c.124-1.374.418-2.95.572-3.674a.504.504 0 0 0-.083-.387c1.735-2.534 2.24-5.96 2.268-6.178 0-2.02-1.954-3.356-2.793-3.831l.902-3.97c.198-.622.082-1.067-.055-1.327a1.522 1.522 0 0 0-.904-.735c-.764-.21-1.311.44-1.52 1.122l-.567 1.557V142.61h53.901v33.948zm3.79 4.5a9.377 9.377 0 0 1 1.164 2.657c-2.263-2.184-6.422-2.466-6.636-2.477-4.288-.528-7.309-2.432-8.491-3.286h4.783a.262.262 0 1 0 0-.526h-4.263c1.283-.837 3.158-1.177 5.761-.906.044 0 1.93.188 3.988 1.252.094.155.229.274.416.274.016 0 .024-.02.038-.02 1.165.678 2.345 1.645 3.24 3.033zm.105-2.874-.027 1.255c-.41-.47-.836-.887-1.29-1.255h1.317zm.149-7.09-.044 1.937h-2.969v-1.938h3.013zm.044-2.364.005-.166-.041 2.106h-3.02v-1.94h3.056zm.055-2.358-.042 1.94h-3.07v-1.94h3.112zm.044-2.198-.036 1.77h-3.12v-1.77h3.156zm.046-2.184-.038 1.941v-.171h-3.164v-1.77h3.202zm.047-2.192.003-.11-.041 1.88h-3.21v-1.77h3.248zm13.975 5.018-.838 15.364c-.421.235-.743.65-.886.854-.101.16-.445.713-.852 1.451l-10.78-2.86.437-20.587 12.919 5.778zm3.373 27.228c.01-.044.132-.453.214-1.028.665.144 2.463.865 2.738 4.199-.253.232-.5.44-.734.716-1.061 1.23-1.822 2.75-2.312 4.542-.277-2.853-.495-6.673.094-8.429zm5.137 2.817a9.134 9.134 0 0 0-.759.498c.256-.194.504-.351.76-.498zm3.098-1.095zm.533-.055c-.101.011-.222.02-.357.042.113-.017.236-.042.324-.042h.033zm.022-12.843c1.141 1.7 4.767 6.792 8.714 9.122-3.738 2.181-6.396 2.731-8.161 2.698-.039-.01-.058-.044-.094-.05-.022 0-.16.006-.346.017-1.688-.146-2.435-.815-2.463-.837a4.731 4.731 0 0 1-.783-.951h3.57a.264.264 0 0 0 .259-.266.255.255 0 0 0-.259-.26h-3.87c-.236-.505-.355-1.061-.377-1.67h4.052c.149 0 .27-.113.27-.26a.263.263 0 0 0-.27-.256h-4.01a7.15 7.15 0 0 1 .363-1.855h4.1c.144 0 .26-.102.26-.252a.259.259 0 0 0-.26-.26h-3.892c.22-.539.473-1.064.754-1.564h4.43c.13 0 .232-.097.245-.23a12.341 12.341 0 0 1-.209-.273c-.019 0-.022-.006-.035-.006h-4.12c.299-.486.601-.929.898-1.327h2.23c-.13-.188-.256-.359-.372-.525h-1.46c.328-.4.62-.757.836-.995zm.437-11.328.066 1.028c-.066.039-.134.072-.195.113l.13-1.141zm-1.242 1.86-7.9 4.235c-.102.033-.946.368-1.262 1.233-.173.47-.151.998.072 1.554l-1.592 1.774c-.022.022-.047.022-.069.042-.01.025-.022.052-.04.08l-.061.063a.984.984 0 0 0-.308-.237l.835-15.295 11.56-4.46-1.235 11.011zm-9.832 12.252a.514.514 0 0 0-.231-.376.539.539 0 0 0-.446-.05c-.03.011-.385.158-.681.583a3.735 3.735 0 0 1 .165-1.67l.566-.64c.126.149.275.303.484.472.096.08.203.124.318.124a.494.494 0 0 0 .399-.196.522.522 0 0 0-.069-.735c-.277-.221-.376-.349-.434-.442l1.671-1.855c.135-.172.182-.412.072-.609-.212-.392-.278-.74-.173-1.025.153-.431.648-.625.706-.658l7.312-3.914c-.41 1.412-.687 3.828.453 7.231-.95 1.004-4.406 4.993-4.318 8.79.03 1.535.638 2.845 1.784 3.896.036.038.305.276.797.53a9.682 9.682 0 0 0-2.614 1.314c-.544-3.528-2.829-4.299-3.62-4.46.019-.961-.132-2.067-.8-2.896-.011-.022-1.086-1.543-1.341-3.414zm-4.698 18.416c-.09.928-.154 1.846-.173 2.681a38.587 38.587 0 0 0-2.103-2.681h2.276zm.036-.418h-2.667a49.517 49.517 0 0 0-1.907-2.079h4.813c-.08.647-.162 1.36-.24 2.08zm.181-8.644c.173.296.355.58.558.874 0 .005.385.713-.074 2.764-.011.03-.025.15-.05.318h-7.95l.463.412h7.419a124.73 124.73 0 0 0-.25 1.78h-5.3c-2.306-2.289-4.36-3.895-5.135-4.475.465-1.358.792-2.64 1.028-3.882v.012h8.18c.22.528.515 1.136.875 1.777h-9.448c-.041.13-.088.276-.132.42h9.816zm-9.953-11.195a10.98 10.98 0 0 0-.602-1.159l3.661.973h-3.158c.035.064.063.122.099.186zm.12.24h4.542l-.536-.14 5.712 1.517c-.075.121-.132.26-.201.392h-8.953c.036.133.055.288.088.415h8.67c-.275.57-.525 1.172-.734 1.777h-7.705c.008.141.02.282.025.418h7.54c-.193.622-.322 1.222-.358 1.772h-7.207c-.011.144-.011.279-.02.42h7.21a3 3 0 0 0 .086.705c.014.047.146.456.382 1.059h-7.914c-.008.022-.01.05-.019.069a18.81 18.81 0 0 0 .316-3.605h.003l-.003-.006c-.016-1.782-.33-3.389-.932-4.815 0 .006.006.014.009.022zm-29.422 25.515c.019-.044.324-.824.15-1.999.072.028.141.058.207.105.3.24.426.863.363 1.753a.495.495 0 0 0 .382.536c.234.086.486-.052.596-.276.003-.009.536-1.078 2.331-2.173.143-.053 1.482-.575 2.373-3.082 0 0 .082-.125.178-.208.228.741.685 2.806-.14 6.054-.005.02-.563 1.678-2.136 3.072-.03.041-.541.65-.698 1.52-.803-.404-1.998-.78-3.664-.937-.162-.722-.487-2.626.058-4.365zm-13.186-14.129.008-.013c.01-.116.665-4.349 5.67-8.556l6.892 2.051-1.603 6.886s-.008.282-.165.456c-.05.047-.382.213-.959.047a.525.525 0 0 0-.627.293l-.646 1.537a.873.873 0 0 1-.676-.27.522.522 0 0 0-.74-.012c-.192.21-.205.54-.002.741.308.329.665.478.995.547l-.484 1.159c-.01.027-.187.69-.684.69a.825.825 0 0 1-.303-.055c-.068-.008-7.25-1.495-6.676-5.5zm30.731 5.681c.212.238.547.54.96.821-.042-.03-.089-.052-.127-.072h-1.616a8.72 8.72 0 0 1 .783-.749zm-24.986-15.309s-.003-.008-.009-.008c-1.932-.705-3.691-1.733-5.038-2.657 6.1 2.002 12.268 2.115 14.112 2.099.058 1.343-.228 2.529-.415 3.145l-1.05-.34c-.008 0-.008.009-.016.009v-.009l-7.584-2.239zm7.823 3.406.99.318a.493.493 0 0 0 .637-.293c.05-.11.836-2.098.624-4.431.005-.042.041-.072.038-.103 0-.055-.044-.088-.057-.121a7.53 7.53 0 0 0-.671-2.367c-.481-.995-1.193-1.832-2.114-2.526l12.515.041c-1.665 2.297-.846 5.438-.632 6.14l-1.193 7.071c-.033.075-.33.796.05 1.47.19.357.55.598 1.014.741-2.96-.646-4.992.542-5.871 1.255-2.035-3.167-4.902-4.113-5.996-4.375l.666-2.82zm8.878 24.039h-3.436a9.65 9.65 0 0 0 .97-1.325c.218-.118 1.07-.409 3.057-.118-.192.458-.393.94-.59 1.443zm-4.296 2.545a3.66 3.66 0 0 0-.34-.304c-.07-.76.422-1.407.42-1.407.15-.135.258-.279.393-.417h3.661c-.14.36-.283.713-.42 1.095a.516.516 0 0 0 .266.658l.2.094-.068-.04h-4.453v.017c.17.133.27.227.34.304zm5.313-4.975c-1.31-.221-2.248-.221-2.889-.125a.633.633 0 0 0 .042-.135c1.168-4.559.019-7.005-.03-7.104a.538.538 0 0 0-.276-.255c-.722-.273-1.357.196-1.665.821-.745 2.073-1.762 2.494-1.864 2.543-.635.39-1.094.755-1.493 1.103l3.934-10.167c.297-.304 2.295-2.142 5.695-1.222v2.391c-.008.097-.066.868.534 1.388.45.42 1.121.53 1.984.354.75-.135 1.861-.196 2.56-.036-1.166.995-3.599 3.713-6.532 10.444zm6.336-22.809c-1.08-.757-2.122-1.034-3.111-.785-.402.097-.748.271-1.05.478l.285-1.683c.176-.235 1.306-1.468 5.278-.243.14.027 3.4.837 3.477 5.932-.005.348-.008 3.262.841 4.536-.175.658-.794 2.557-2.13 3.345-.649.39-1.371.462-2.213.232-1.039-.882-3.422-.53-3.925-.437-.528.105-.918.078-1.11-.094-.207-.182-.196-.52-.193-.569v-1.41c.05 0 .083.011.138.011.214 0 .434-.036.654-.113.228-.02.726-.066 1.039.005.28.04.555-.135.613-.406a.516.516 0 0 0-.407-.616c-.585-.12-1.366-.011-1.454-.009a.51.51 0 0 0-.151.047c-.105.05-.275.053-.432.039v-1.473a.527.527 0 0 0-.459-.523c-.429-.05-.72-.188-.833-.37-.134-.23 0-.55.036-.672l.635-3.693c.085-.152.638-1.067 1.614-1.305.673-.174 1.437.053 2.256.625.231.171.556.121.718-.113a.537.537 0 0 0-.116-.736zm-2.4-6.518c-.142-.097-.305-.185-.428-.271h-1.017c.071-.19.123-.379.228-.567.277.219.693.503 1.218.838zm-13.312-3.867h15.21c-1.07.207-2.018.53-2.736 1.072l-13.87-.052 1.396-1.02zm3.016-2.19h12.891v-.425h-12.303l2.419-1.767h9.895v-.417h-9.31l2.436-1.775h6.874v-.42h-6.3l2.444-1.77h3.867v-.42h-3.293l2.43-1.766h.874v-.428h-.283l.327-.24-.038 11.452c-.017.005-.028.005-.041.005l.002-.265H330.09l2.433-1.764zm-17.887 4.91h4.778a.254.254 0 0 0 .253-.257.258.258 0 0 0-.253-.263h-4.063c.476-.301.962-.55 1.443-.75h4.53c.14 0 .258-.12.258-.256a.266.266 0 0 0-.258-.268h-2.81c3.126-.614 5.935.406 6.16.494 2.445.683 4.108 1.9 4.938 3.61.236.515.398 1.029.497 1.549-2.193.005-9.818-.23-16.325-3.074.275-.288.56-.556.852-.785zm4.948-2.958c-.146.005-.294.041-.442.055.148-.014.296-.05.442-.055zm-1.602.238c.038-.017.071-.017.115-.025a9.98 9.98 0 0 0-2.88 1.097h-10.163l-.003-1.072h12.93zm-.292-2.615h-12.65l-.002-1.767h10.15l-.593-.417h-9.557l-.011-1.775h7.07l-.597-.42h-6.473l-.009-1.77h3.986l-.596-.42h-3.39l-.008-1.766h.902l-.602-.428h-.3v-.255l16.02 11.356c-.085 0-.179.006-.27.006.072 0 .149-.006.226-.006l-.203-.15H305.05l-.008-1.763h13.235l-.588-.425zm-3.834 16.986h-3.937a5.934 5.934 0 0 1-.035-1.426h3.972a.26.26 0 0 0 .258-.265.25.25 0 0 0-.258-.26h-3.92c.06-.476.143-.96.258-1.452h4.167c.152 0 .267-.11.267-.257a.263.263 0 0 0-.267-.262h-4.035c.127-.473.261-.926.399-1.355h4.098a.262.262 0 0 0 .261-.262.255.255 0 0 0-.26-.263h-3.92c.203-.592.406-1.097.566-1.462h4.134c.143 0 .266-.11.266-.26 0-.138-.123-.254-.266-.254h-3.876c.214-.468.448-.904.701-1.3h1.427c-.242-.193-.46-.37-.64-.52h-.44c.074-.113.145-.24.228-.35.893.787 3.576 2.977 6.998 4.4-3.879 3.425-5.107 6.77-5.46 8.169-.69-.282-1.78-.583-3.36-.912-.496-.152-.842-.46-1.065-.951-.027-.075-.033-.163-.06-.243h3.799a.249.249 0 0 0 .258-.26.25.25 0 0 0-.258-.255zm-8.552 7.237h4.942c.135 0 .25-.116.25-.265a.251.251 0 0 0-.25-.249h-4.428c.478-.49.951-.94 1.394-1.327h4.571c.137 0 .264-.11.264-.257a.265.265 0 0 0-.264-.26h-3.939a18.318 18.318 0 0 1 1.484-1.103h4.261a.258.258 0 0 0 .25-.254 10.079 10.079 0 0 0-.885-.274h-2.801c.45-.257.786-.425.946-.503 1.33.293 2.82.683 3.287.899-.151 2.25 1.482 3.787 3.271 4.771-.84.039-1.437.15-1.5.166-8.046.995-10.29-.55-10.891-1.297.01-.016.024-.027.038-.047zm22.172 14.624c-.357-.009-.745 0-1.144.014a40.049 40.049 0 0 0-.167-4.481c.73.207 1.118.39 1.3.508-.33 1.581-.149 3.113.01 3.959zm.245-5.007c-.369-.176-.908-.373-1.686-.566-.426-3.157-1.16-4.523-1.203-4.606a4.729 4.729 0 0 0-1.55-1.951c.445-.32.714-.818.772-1.103l.756-1.78s.002-.009.008-.009l.605-1.432c.777.125 1.291-.174 1.539-.425.445-.454.459-1.078.448-1.078l.676-2.861c.954.243 3.703 1.177 5.542 4.234l-3.805 9.833c-.071-.088-.132-.188-.222-.265-.57-.454-1.298-.373-1.636-.266a.52.52 0 0 0-.332.636c.2.73.148 1.297.088 1.64zm10.483 15.467h-6.165c-.044.127-.088.29-.13.426h6.298c.011.57.039 1.16.1 1.763h-7.035c-.022.056-.05.116-.072.18a37.893 37.893 0 0 0 1.38-4.293c-.01.055-.024.1-.04.155h5.714a26.297 26.297 0 0 0-.05 1.769zm-9.172 6.568c-.03.044-.058.08-.091.133.745-1.06 1.49-2.394 2.196-4.155-.01.022-.016.047-.027.063h7.246c.068.586.153 1.175.277 1.77h-8.315c-.069.146-.146.273-.223.42h8.629c.143.589.31 1.177.517 1.769h-10.21zm8.26 5.565c-.083.102-.165.207-.248.317.086-.11.165-.215.248-.317zm2.023-3.376H329.6c.247.133.48.268.717.42h8.464c-.55.451-1.19 1.032-1.837 1.767h-4.332c.157.144.316.282.465.426h3.496c-.434.52-.866 1.116-1.272 1.766h-.528c.102.122.214.246.302.348l-.003.006c-1.058-1.28-3.785-4.238-7.11-5.54.258-.29.524-.608.788-.965h10.63c.165.448.349.89.56 1.33a11.69 11.69 0 0 0-.626.442zm-.357-15.364h-5.377a6.875 6.875 0 0 0-.074.415h5.36c-.116.533-.231 1.141-.33 1.81h-5.377c-.027.147-.066.274-.093.423h5.407c-.074.548-.14 1.137-.187 1.761h-5.63c-.013.064-.033.122-.05.183.449-1.73.858-3.702 1.202-5.952a.539.539 0 0 0-.09-.387c-.006-.016-.05-.055-.08-.088.008.002.016.013.022.019h4.909l.761.36c-.096.326-.228.829-.373 1.456zm1.327-.995c.575.276 1.592.727 2.897 1.202-.129-.044-.26-.088-.39-.143h-2.773c.099-.431.192-.79.266-1.059zm-.074-1.2c-.008-.002-.014 0-.02 0-.002-.002-.002-.01-.01-.01l-1.757-.819h4.382a.265.265 0 0 0 .258-.263c0-.149-.12-.257-.258-.257h-4.178c.167-.43.332-.87.497-1.28h4.613c.14 0 .258-.11.258-.257a.258.258 0 0 0-.258-.257h-4.393c.19-.448.371-.884.553-1.293h4.686a.262.262 0 0 0 .264-.263.253.253 0 0 0-.264-.257h-4.458c.187-.404.365-.796.541-1.17h4.5a.26.26 0 0 0 .258-.251.27.27 0 0 0-.258-.265h-4.247c.248-.523.498-1.012.74-1.474h4.436a.26.26 0 0 0 .261-.254.257.257 0 0 0-.26-.263h-4.157c.256-.47.508-.915.748-1.316h4.483c.148 0 .267-.107.267-.251a.261.261 0 0 0-.267-.263h-4.167c.26-.417.517-.807.75-1.152h4.516c.143 0 .248-.111.248-.255 0-.143-.105-.265-.248-.265h-4.15c.288-.387.555-.722.8-1.006h3.001c-.038-.022-.068-.045-.11-.061.443.207.938.381 1.531.426.13.016.256.016.383.016 1.792 0 3.644-1.009 5.547-3.021a.517.517 0 1 0-.742-.716c-1.801 1.907-3.522 2.817-5.091 2.684a3.676 3.676 0 0 1-1.867-.713 3.505 3.505 0 0 0 1.768-.503c2.017-1.206 2.644-4.13 2.672-4.255a.545.545 0 0 0-.132-.47c-.57-.588-.765-2.8-.743-4.052-.09-5.968-4.238-6.933-4.246-6.933-3.217-.998-4.91-.498-5.756.064a8.976 8.976 0 0 1-.149-1.518h4.91c.123 0 .208-.083.233-.205-.267-.105-.511-.199-.761-.315h-4.374a5.3 5.3 0 0 1 .168-1.059h2.073c-.127-.077-.24-.149-.363-.226a19.841 19.841 0 0 0 7.916 2.748c.064 0 6.957.456 7.139 4.627 0 0 .008.003.008.006.014 2.277-.484 4.89-1.492 7.8a.53.53 0 0 0 .195.603c.085.06 8.974 6.444 12.553 14.496l-1.511 1.396v.003c-.006.008-.009.008-.009.008-11.303 11.027-27.295 2.403-27.46 2.311zm29.684.982a122.67 122.67 0 0 0-1.226-2.795l1.495-1.388a.508.508 0 0 0 .124-.583 25.043 25.043 0 0 0-1.748-3.356c-.272-2.778.814-9.493.82-9.531.552-2.455.03-3.384-.086-3.547-1.377-1.98-2.095-4.26-2.095-4.26-.47-1.78 1.856-5.993 2.768-7.422.259-.357.432-.498.525-.553-1.212 2.347-.156 4.357.105 4.788.03.343.09.71.2 1.144.077.28.36.456.644.376a.514.514 0 0 0 .365-.627c-.198-.758-.225-1.291-.19-1.681.465 1.498 1.202 2.554 1.265 2.629 1.108 1.363.338 4.041.338 4.041-1.06 3.171.24 12.025.286 12.387.005.03.03.047.038.07-.082 1.412-.038 2.94.14 4.597-.55.257-3.031 1.675-3.768 5.71zm27.958-20.136c.847.97 1.718 2.015 2.526 3.077-.621 1.084-4.131 5.592-19.448 4.246-.83-.07-4.271-.257-6.173.644.077-.44.17-.865.275-1.283h3.952c.14 0 .25-.11.25-.248 0-.152-.11-.26-.25-.26h-3.826c.132-.473.286-.912.46-1.335h4.328c.14 0 .259-.105.259-.25 0-.148-.118-.26-.259-.26h-4.07a9.1 9.1 0 0 1 .692-1.22h4.445c.14 0 .256-.109.256-.255a.256.256 0 0 0-.256-.26h-4.08c.091-.108.157-.232.245-.329a8.015 8.015 0 0 1 1.38-1.266h3.975a.259.259 0 0 0 .261-.257.258.258 0 0 0-.261-.263h-3.183a8.45 8.45 0 0 1 2.204-.893h3.61a.254.254 0 0 0 .255-.257c0-.038-.027-.066-.036-.102 1.927-.32 4.42-1.22 7.568-3.162l.118-.078c.2-.13.415-.257.632-.398a86.633 86.633 0 0 1 3.755 3.967c0 .044-.025.083-.016.113.057.2.222.293.412.33zm-2.394-7.662c-.729 1.49-1.853 2.095-1.966 2.167-.274.18-.525.326-.778.489-4.233-2.181-8.372-8.293-9.112-9.41h4.346a.264.264 0 0 0 .261-.262c0-.15-.118-.26-.26-.26h-4.55a16.42 16.42 0 0 1-.41-1.476h4.563a.257.257 0 0 0 .259-.26.258.258 0 0 0-.259-.266H382.9a12.303 12.303 0 0 1-.185-1.653h4.346a.263.263 0 0 0 .267-.262c0-.147-.118-.252-.267-.252h-4.368c.011-.652.07-1.18.17-1.653h4.198c.149 0 .267-.11.267-.257a.264.264 0 0 0-.267-.26h-4.093c.179-.683.402-1.111.47-1.233.047-.044.149-.124.27-.207h4.686c.053 0 .088-.03.121-.05a7.312 7.312 0 0 0-1.025-.475h-2.732c.42-.147.907-.266 1.5-.238 1.655.058 3.343 1.05 5.1 3.021.022.02 2.245 1.919 3.647 5.28 1.504 3.608 1.185 5.993.47 7.489 0 .01-.016.01-.016.016v.012zm-14.72-33.695a10.26 10.26 0 0 0 2.251 3.093c-2.278-.613-2.91-1.564-3.062-1.943.289-.348.558-.735.811-1.15zm1.094-3.414c.094 0 .173-.016.261-.039.025.08.08.21.135.335h-1.298c.03.169.055.351.094.511h1.43c.216.5.513 1.12.895 1.841h-1.75c.082.183.18.34.26.52h1.763c.324.575.7 1.189 1.105 1.805h-1.705c.151.183.308.351.468.512h1.58a17.613 17.613 0 0 0 1.908 2.322c-2.158-.81-5.82-3.01-6.309-8.736.06.238.157.45.316.606.215.213.512.323.847.323zm5.685-6.23c.005 0 .013 0 .019-.009.005 0 .036-.022.047-.022 1.547-.525 3.46-.876 5.832-.876.635 0 1.29.019 1.905.052 0 0 .014.022 0 .078h-.244c-1.878 0-8.346.43-13.137 5.96-.03 0-.068.008-.107.008l-.12-.03c-.031-.031-.075-.133-.092-.3.24-.55 1.628-3.386 5.897-4.862zm-18.665-2.992s.105-.213.792-.456c.08-.022 7.622-1.656 12.276 1.076-.176.212-.33.44-.478.657-1.27-.613-5.151-2.09-12.48-1.194-.044-.033-.096-.077-.11-.083zm.377 1.112c6.79-.791 10.473.52 11.668 1.072a10.4 10.4 0 0 0-.494 1.098c-.762-.282-2.197-.609-3.604.149a.575.575 0 0 0-.228.224c-.052.102-1.122 2.316-.828 6.419-.269.116-.612.237-.857.237a.515.515 0 0 0-.517.514c0 .293.234.528.517.528.723 0 1.561-.47 1.66-.516a.55.55 0 0 0 .259-.506c-.303-3.409.41-5.499.632-6.063 1.02-.464 2.078-.21 2.636-.005a8.096 8.096 0 0 0-.228.896c-.418.013-1.347-.014-1.776-.335a.524.524 0 0 0-.726.097c-.17.238-.123.57.1.73.642.486 1.654.555 2.215.555h.016a11.234 11.234 0 0 0-.068 1.897c.074 1.252.316 2.35.648 3.325-1.454 2.715-3.438 4.064-6.006 3.928-.03-.003-1.94.025-3.535-1.86-1.968-2.339-2.474-6.62-1.484-12.384zm-1.976 13.302h2.886a2.262 2.262 0 0 1-.24-.25c-.076-.074-.115-.182-.175-.265h-1.853a5.797 5.797 0 0 0 1.056-1.321c.285.578.61 1.128 1.003 1.587 1.869 2.225 4.258 2.239 4.302 2.233.11.006.225.006.338.006 1.773 0 3.31-.611 4.598-1.808.311.498.927 1.125 2.103 1.648-4.032 1.94-6.687 3.892-7.636 4.646-1.638-1.725-5.552-4.757-7.144-5.968.121-.072.25-.14.366-.215.019-.014.04-.025.057-.047.13-.072.231-.16.339-.246zm-1.914.934c.96.735 6.402 4.873 7.837 6.587.102.1.226.166.355.18h.05a.48.48 0 0 0 .33-.119c.032-.03 3.267-2.775 8.776-5.266.624.166 1.333.307 2.188.412h.005c.776.453 1.512.768 2.103.97-.794.398-1.726.907-2.48 1.43l.031-.26a.531.531 0 0 0-.2-.46.503.503 0 0 0-.5-.077l-12.467 4.802-12.243-5.462c1.77-1.922 5.149-2.568 6.215-2.737zm.003-1.04c-.146.017-.459.059-.882.139v-1.208c.217.417.508.782.882 1.07zm-.882-13.782h.962c-.19.53-.366 1.089-.525 1.675h-.437V140.9zm0 2.189h.321c-.118.445-.225.904-.321 1.385v-1.385zm0-4.384h1.88a18.339 18.339 0 0 0-.723 1.675h-1.157v-1.675zm0-2.151h2.064v-.517h-2.064v-1.667h2.064v-.517h-2.064v-1.678h2.064v-.514h-2.064v-1.678h2.064v-.52h-2.064v-1.67h2.064v-.519h-2.064v-1.672h2.064v-.514h-2.064v-1.673h2.064v-.514h-2.064v-1.47h2.064v-.52h-2.064v-1.673h2.064v-.52h-2.064v-1.67h2.064v-.519h-2.064v-1.664h2.064v-.52h-2.064v-1.68h2.064v-.512h-2.064v-1.675h2.064v-.514h-2.064v-1.672h2.064v-.52h-2.064v-1.675h2.064v-.517h-2.064v-1.664h2.064v-.526h-2.064v-1.672h2.064v-.514h-2.064v-1.675h2.064v-.52h-2.064v-1.631h2.097v40.672c0 .047.039.077.05.113-.033.055-.055.113-.083.177v-.152h-2.064v-1.634zm-6.963-11.508a28.361 28.361 0 0 0-1.388-1.595h4.186v1.595h-2.798zm2.798 2.784v1.523a25.051 25.051 0 0 0-.871-1.523h.871zm-1.217-.595a21.93 21.93 0 0 0-1.235-1.716c.036.036.07.083.105.127h2.347v1.59h-1.217zm1.217-5.763v1.382h-4.78c.006.008.017.014.022.025-.412-.418-.822-.843-1.248-1.222v-.185h6.006zm-6.006-.603h6.006v-1.59h-6.006v1.59zm0-2.184h6.006v-1.592h-6.006v1.592zm0-2.194h6.006v-1.59h-6.006v1.59zm0-2.19h6.006v-1.587h-6.006v1.587zm0-2.192h6.006v-1.59h-6.006v1.59zm0-2.187h6.006v-1.592h-6.006v1.592zm0-2.192h6.006v-1.592h-6.006v1.592zm5.182-3.798zm-.775-.091c.14.028.277.044.415.047-.138-.014-.275-.02-.415-.047zm-4.407 1.708h6.006v-1.597h-6.006v1.597zm0-4.387v-.279c.08.086.182.188.259.28h-.259zm.866.597a9.84 9.84 0 0 0 2.18 1.587h-3.046v-1.587h.866zm-39.816 17.988c.31.296.855.755 1.575 1.28h-3.007a24.29 24.29 0 0 1 1.432-1.28zm23.428-27.303a5.954 5.954 0 0 0-.962-1.6h4.95l1.74 1.6h-5.728zm.547 2.18a8.517 8.517 0 0 0-.324-1.58h6.16l1.734 1.58h-7.57zm.761 2.157-.002.199c-.006-.583-.119-1.396-.622-2.093-.016-.02-.033-.033-.05-.052.023.02.048.033.061.052.08.114.116.23.182.34h7.891l1.702 1.554h-9.162zm9.415 2.192h-8.675c.093.19.192.37.3.594h8.375v1.595h-7.617c.06.116.115.25.17.379a61.754 61.754 0 0 0-1.992-4.017c.005-.077.01-.212.022-.34-.006.056 0 .141-.011.194h9.428v1.595zm0 4.373h-6.682a41.741 41.741 0 0 0-.666-1.587h7.348v1.587zm0 2.203h-5.874a40.898 40.898 0 0 0-.685-1.896c.041.102.08.193.118.299h6.44v1.597zm0 2.181h-5.253c-.121-.522-.261-1.05-.426-1.592h5.679v1.592zm0 9.363v.885a49.813 49.813 0 0 0-2.238-1.355c.267.147.534.299.811.47h1.427zm0-7.17h-4.923c.005.055.019.13.025.19.008.122.008.263.005.407h4.893v1.59h-5.28a4.344 4.344 0 0 1-.352.602h5.632v1.59h-6.842c.176.107.335.231.539.334.06.019.28.113.632.265h5.67v1.59h-2.468c.025.024.064.038.088.055-2.18-1.217-3.757-1.841-3.933-1.91-.399-.197-.718-.432-1.047-.664 2.097-.76 2.545-2.778 2.454-3.859a11.723 11.723 0 0 0-.264-2.001c.022.077.044.152.06.218h5.11v1.592zm-22.933 2.565c.181.207.36.412.56.605 1.358 1.277 2.983 1.916 4.808 1.916h.333c.093-.03 2.537 0 4.494-2.322a8.716 8.716 0 0 0 1.418-2.444c.22.719.572 1.529 1.114 2.325-1.914 2.867-6.312 3.309-6.356 3.32-4.62.423-6.577-2.03-6.841-2.383.22-.357.37-.694.47-1.017zm9.423-.5c-1.63 1.954-3.629 1.976-3.744 1.976-1.707.086-3.178-.481-4.415-1.634-3.433-3.24-4.049-10.236-4.148-11.878a5.38 5.38 0 0 0 1.078-.348c.041-.017 3.98-1.557 9.013-1.557 1.05 0 2.075.075 3.013.197.01.005.335.071.753.116-.008.047-.036.08-.033.124 1.066 6.048.536 10.54-1.517 13.003zm3.438-13.44c1.04 1.97 4.003 7.864 4.126 11.632.011.1.162 2.507-2.405 2.977-2.268-2.24-2.345-5.103-2.345-5.255 0-.009-.008-.009-.008-.014.443-2.458.366-5.465-.267-9.056.388-.05.693-.144.9-.285zM321.95 92.8h3.905c.143 0 .267-.116.267-.254a.268.268 0 0 0-.267-.263h-3.562c.373-.456.888-.873 1.668-1.175.014-.008.278-.138.775-.317h3.42a.269.269 0 0 0 .264-.269.254.254 0 0 0-.264-.257h-1.603c1.776-.398 4.418-.713 7.826-.295.033 0 2.928.345 3.75 3.958a2.893 2.893 0 0 0-.74-.174c-.102-.033-2.32-.75-5.82-.75-2.976 0-5.953.52-8.864 1.56-.028.016-.5.26-1.091.76-.113-.666-.13-1.63.335-2.524zm-.69 4.957h3.73c.145 0 .252-.12.252-.268a.255.255 0 0 0-.253-.258h-3.568c.116-.251.231-.475.297-.583.24-.257.47-.467.687-.633h3.45a.26.26 0 0 0 .267-.257.271.271 0 0 0-.267-.268h-2.65c2.727-.954 5.545-1.449 8.365-1.449 3.32 0 5.475.694 5.596.727.668.075 1.136.313 1.452.736.602.807.385 2.018.385 2.026-.055.293-.657.32-.913.32-.542 0-1.072-.121-1.138-.135a24.459 24.459 0 0 0-3.186-.202c-5.23 0-9.217 1.551-9.415 1.626a4.089 4.089 0 0 1-1.712.39c-.24 0-.412-.023-.429-.023-.533-.215-.857-.51-.976-.903-.085-.263-.04-.562.025-.846zm-.364 15.773c.11-.23.217-.503.314-.785h4.104c.099-.177.173-.348.225-.52h-4.173c.138-.506.256-1.086.35-1.694h3.463c-.1-.175-.2-.335-.291-.515h-3.098c.071-.541.132-1.105.181-1.686h2.18c-.069-.18-.105-.354-.168-.522h-1.968a49.58 49.58 0 0 0 .096-1.695h1.36a44.875 44.875 0 0 0-.131-.511h-1.212c.022-.586.03-1.153.038-1.697h.836a7.335 7.335 0 0 1-.088-.52h-.742c0-.55-.003-1.056-.014-1.515h.56c-.019-.177-.04-.362-.046-.517h-.52c-.008-.31-.013-.589-.022-.813.13.014.3.036.509.036.096 1.604.585 7.09 3.076 10.828-.006.506-.217 2.289-2.636 3.035-1.501-.19-2.032-.685-2.183-.91zm-4.582 5.7h4.827c.154 0 .267-.11.267-.26a.259.259 0 0 0-.267-.26h-4.448a22.874 22.874 0 0 1 2.27-1.479h4.127c.137 0 .25-.11.25-.262a.25.25 0 0 0-.25-.255h-3.148c1.853-.92 3.035-1.15 3.085-1.158 1.09-.282 1.841-.732 2.386-1.244.62.736 2.603 2.657 6.487 2.657.36 0 .728-.011 1.116-.047.203-.02 4.686-.45 6.946-3.467.195.224.407.434.632.647.011.008.017.017.025.022a9.226 9.226 0 0 0 2.15 1.47c.06.026 3.083 1.231 6.676 3.647-19.846 10.004-30.676 2.173-33.131-.011zm16.88-37.139 1.738 1.581h-6.053l-.652.6h7.353l1.74 1.595h-10.827l-.66.603h12.147l1.737 1.587h-15.618l-.655.597h16.925l1.737 1.597h-4.874c-1.31-1.155-2.732-1.313-2.743-1.313-6.93-.87-10.844 1.161-10.951 1.225-.06.025-.102.055-.16.088h-1.67l-.655.592h1.248a4.114 4.114 0 0 0-1.339 1.6h-1.649l-.649.6h2.043a5.027 5.027 0 0 0-.193 1.582h-3.587l-.649.602h4.286c.046.365.11.71.206 1.007a4.48 4.48 0 0 0-.278.547h-5.912l-.259.232v.365h5.954c-.13.462-.184 1-.027 1.526.005.022.027.039.033.069h-5.96v.594h6.284c.135.172.291.332.478.467.008.227.022.622.036 1.128h-6.798v.597h6.809c.005.476.01 1.007.005 1.587h-6.814v.606h6.812c-.003.508-.014 1.039-.033 1.597h-6.779v.59h6.754c-.02.533-.047 1.06-.085 1.591h-6.669v.6h6.622c-.047.55-.104 1.078-.173 1.592h-6.449v.598h6.355a13.83 13.83 0 0 1-.343 1.59h-6.012v.602h5.803c-.08.188-.157.362-.248.52a.516.516 0 0 0-.074.353c.017.075.118.373.424.716h-5.905v.6h6.69c.067.036.108.075.18.108-.8.287-1.856.763-3.085 1.482h-3.785v.602h2.815c-.687.445-1.413.979-2.174 1.592h-.64v.52s-.004 0-.006.006V97.013l17.584-16.108.646.584h-1.281l-.655.602h2.584zm13.054 50.516c.286-.667.61-1.78.781-3.57.698.885 1.87 2.085 3.59 3.183-.954.154-2.477.334-4.37.387zm-29.714-.02c.706-.721 1.29-1.54 1.701-2.222.18.868.41 1.595.589 2.078-.795.078-1.562.125-2.29.144zm-7.29 3.304c.08.154.195.268.382.29.289.027 7.1.672 11.034-.017.055-.022 5.858-1.645 8.845 1.847h-20.26v-2.12zm-.835-3.793a.532.532 0 0 0-.204.412v1.324h-3.194c.19-.6.415-1.191.668-1.744h2.79c-.016.008-.044-.009-.06.008zm-3.882 4.442h3.678v1.47h-3.579a6.895 6.895 0 0 1-.099-1.47zm-.038-4.32a16.533 16.533 0 0 0-.55 1.584h-.679v-1.584h1.229zm1.064-2.195a22.304 22.304 0 0 0-.809 1.586h-1.484v-1.586h2.293zm2.652 6.001h-3.653a10.77 10.77 0 0 1 .308-1.678h3.345v1.678zm-1.822-8.196h.558c-.275.392-.644.931-1.045 1.6h-2.636v-1.6h3.123zm0-2.184h2.108c-.357.511-.731 1.023-1.102 1.59H303.259v-1.59h3.123zm0-2.195h2.883v1.161c-.107.138-.211.293-.321.434H303.259v-1.595h3.123zm0-1.98h2.883v1.383h-6.006v-1.382h3.123zm0-2.191h2.883v1.59h-6.006v-1.59h3.123zm0-2.187h2.883v1.592h-6.006v-1.592h3.123zm0-2.192h2.883v1.59h-6.006v-1.59h3.123zm0-2.19h2.883v1.59h-6.006v-1.59h3.123zm0-2.191h2.883v1.59h-6.006v-1.59h3.123zm0-2.19h2.883v1.592h-6.006v-1.592h3.123zm0-2.192h2.883v1.592h-6.006v-1.592h3.123zm-1.91-2.25c.126-.014.255-.02.376-.042-.121.023-.25.028-.377.042zm-1.213-.042zm3.123.106h2.883v1.597h-6.006v-1.597h3.123zm2.883-2.193v1.587h-3.048c.838-.426 1.6-1.04 2.24-1.63-.025.016-.033.03-.05.043h.858zm0-.597h-.261c-.014.017-.03.03-.044.047.102-.11.214-.218.305-.326v.28zm-5.756 34.84h-.25v-1.593h.517a12.334 12.334 0 0 0-.267 1.592zm.066 2.009h-.316v-1.413h.236c-.01.47.006.946.08 1.413zm47.213-2.861c-.077.003-6.968.652-10.648.02-.275-.092-6.466-1.825-9.885 2.12-3.417-3.945-9.613-2.207-9.824-2.14-3.739.658-10.64.003-10.71 0-.217-.036-.384.108-.478.301v-2.308c.995.193 3.082.511 5.83.517.011 0 .02.005.033.005.011 0 .022-.005.033-.005 1.322 0 2.799-.075 4.385-.257.013 0 .013.008.033.008.044 0 .096-.02.15-.03.163-.025.317-.03.485-.058.06-.009 6.303-1.82 9.648 2.084.17.36.78.36.954-.008.01-.009.01-.025.013-.04 3.357-3.836 9.552-2.056 9.693-2.014 1.762.235 3.389.315 4.848.315.011 0 .017.005.02.005.013 0 .016-.005.024-.005 2.81 0 4.956-.324 5.97-.517v4.868h-20.351c2.974-3.483 8.785-1.869 8.892-1.83 3.879.672 10.701.027 10.987 0a.526.526 0 0 0 .467-.567.52.52 0 0 0-.569-.464zm4.357-5.346a.519.519 0 0 0-.704-.191c-1.487.862-2.295 1.634-2.696 2.087-2.996-1.708-4.387-3.928-4.61-4.301.02-.653.02-1.374-.008-2.162a.518.518 0 0 0-.514-.509h-.017a.527.527 0 0 0-.5.537c.151 4.906-.704 6.833-1.003 7.358a35.89 35.89 0 0 1-4.376-.29c-.28-.086-6.59-1.927-10.418 2.043-3.815-3.97-10.121-2.134-10.327-2.07-.03.005-.064.005-.091.013-.31-.796-1.012-2.883-.841-5.025a.515.515 0 0 0-.478-.564c-.32-.061-.534.196-.553.475-.041.487-.027.957.003 1.415-.072.158-1.32 2.743-3.076 3.995-2.798-.03-4.874-.373-5.693-.525h1.061c.138 0 .25-.12.25-.255 0-.149-.112-.268-.25-.268h-4.379a25.85 25.85 0 0 1 .844-1.567h5.047c.143 0 .258-.11.258-.257a.26.26 0 0 0-.258-.266h-4.725c.616-.967 1.108-1.586 1.132-1.62.014-.019.022-.03.033-.052h4.445a.254.254 0 0 0 .253-.252.25.25 0 0 0-.253-.26h-4.076c.423-.624.835-1.224 1.259-1.774h4.513c.149 0 .27-.116.27-.257a.264.264 0 0 0-.27-.266h-4.11c.424-.541.847-1.045 1.265-1.528h4.31a.255.255 0 1 0 0-.512H312c.465-.508.913-.97 1.358-1.415h4.343c2.573 1.675 6.988 3.72 13.376 3.72 5.176 0 11.616-1.362 19.346-5.345 3.796 2.728 7.974 6.744 9.906 12.121.017.028 1.116 2.958-.06 4.68-.591.86-1.68 1.294-3.25 1.294h-4.614v-5.485c.211-.27.915-1.067 2.553-2.01a.526.526 0 0 0 .187-.712zm3.134 27.803v.089c0 .038.038.06.05.102-.072.069-.122.146-.188.224l-.536-.249a.542.542 0 0 0-.495.041.532.532 0 0 0-.239.423l-.022 1.14h-3.257v-1.77h4.687zm-4.687-.42h4.687v-1.772h-4.687v1.772zm0-2.184h4.687v-1.766h-4.687v1.766zm0-2.197h4.687v-1.77h-4.687v1.77zm0-2.19h4.687v-1.769h-4.687v1.77zm0-2.184h4.687V146.7h-4.687v1.733zm0-4.304h4.687v-1.592h-4.687v1.592zm0 2.148h4.687v-1.722h-4.687v1.722zm0 29.122v-1.943h2.96l.006-.18-.096 4.49h-1.9c-.324-.23-.651-.476-.97-.672v-1.277h2.914l.008-.418h-2.922zm-71.578-16.165a9.3 9.3 0 0 0 1.344-2.176c.275.368.638.785 1.091 1.175l-2.427 1.017s-.006-.008-.008-.016zm2.823-.036-.86 7.848a9.702 9.702 0 0 0-2.648.066c-.198.014-4.623.475-7.177 3.97l.212-7.495 10.473-4.39zM273.5 175.943c.01-.116.024-.235.035-.34-.01.105-.022.224-.035.34zm0 .047h1.756c.248-.174.509-.351.773-.52h-2.477a9.362 9.362 0 0 1 .346-1.598h4.222c.135 0 .242-.116.242-.26 0-.14-.107-.256-.242-.256h-4.049c.168-.42.366-.827.602-1.206h4.415a.25.25 0 0 0 .25-.254c0-.15-.115-.274-.25-.274h-4.054c.343-.45.717-.84 1.118-1.18h4.55a.265.265 0 0 0 .255-.257.266.266 0 0 0-.255-.268h-3.923c.385-.271.789-.498 1.185-.702h4.351a.257.257 0 0 0 .264-.252.27.27 0 0 0-.264-.276h-3.114c1.242-.434 2.218-.553 2.254-.553 2.542-.387 4.346.27 5.61 1.285-2.169.987-8.738 4.138-13.59 7.909a13.44 13.44 0 0 1 .025-1.338zm-8.678 4.511c.099-.008 2.485-.143 5.904-2.161.09-.053.47-.221.676-.144.198.777.88 4.542-3.502 6.64-.022.008-2.212 1.17-5.88.89a20.057 20.057 0 0 1-1.426-6.11c.297-.287 1.273-1.036 3.54-1.193.572-.064 1.403-.164 2.087-.33-.247.559-.701 1.187-1.54 1.374a.54.54 0 0 0-.395.575c.036.274.244.434.536.46zm-11.682 45.443h2.218c.137 0 .25-.108.25-.254 0-.138-.113-.263-.25-.263h-2.315a54.312 54.312 0 0 1-.247-1.647h2.562c.137 0 .25-.114.25-.26a.245.245 0 0 0-.25-.252h-2.636a69.186 69.186 0 0 1-.184-1.656h2.82a.25.25 0 0 0 .25-.254c0-.14-.113-.262-.25-.262h-2.873a96.34 96.34 0 0 1-.145-1.645h3.018c.137 0 .25-.114.25-.26a.257.257 0 0 0-.25-.257h-3.051c-.042-.547-.075-1.1-.108-1.656h3.159c.137 0 .25-.108.25-.252a.25.25 0 0 0-.25-.26h-3.183c-.03-.55-.053-1.094-.072-1.658h3.255a.25.25 0 0 0 .25-.252.253.253 0 0 0-.25-.257h-3.277c-.014-.552-.027-1.103-.038-1.658h3.315c.137 0 .25-.103.25-.249a.258.258 0 0 0-.25-.263h-3.329l-.025-1.647h3.354c.137 0 .25-.116.25-.257 0-.147-.113-.268-.25-.268h-3.354c-.005-.548-.005-1.098-.005-1.645h3.359c.137 0 .25-.119.25-.26 0-.135-.113-.265-.25-.265h-3.354c0-.548.009-1.095.017-1.64h3.337c.137 0 .25-.113.25-.26 0-.152-.113-.265-.25-.265h-3.329c.011-.555.02-1.111.033-1.645h3.296c.137 0 .25-.105.25-.26a.26.26 0 0 0-.25-.254h-3.285c.011-.57.03-1.122.05-1.65h3.235c.137 0 .25-.113.25-.265a.247.247 0 0 0-.25-.252h-3.22l.061-1.648h3.159c.137 0 .25-.118.25-.268a.256.256 0 0 0-.25-.254h-3.134c.028-.58.05-1.122.077-1.648h3.057c.137 0 .25-.116.25-.262a.255.255 0 0 0-.25-.257h-3.035c.033-.59.066-1.14.096-1.648h2.939c.137 0 .25-.116.25-.26 0-.146-.113-.265-.25-.265h-2.911c.038-.622.074-1.18.104-1.648h2.807c.137 0 .25-.105.25-.26a.252.252 0 0 0-.25-.251h-2.768c.019-.36.044-.639.057-.838 5.003-.699 10.286-2.554 10.633-2.681a.52.52 0 0 0 .321-.332.537.537 0 0 0-.063-.453c-.396-.6-.742-1.222-1.042-1.83.234.014.473.033.69.033 3.238 0 5.121-1.025 5.19-1.067 5.58-2.67 3.98-7.975 3.975-8.025-.017-.069-.06-.127-.105-.19-.613-.683-1.588-.38-2.048-.1a16.287 16.287 0 0 1-3.254 1.507c.467-.791.572-1.612.583-1.662.016-.23-.091-.448-.294-.542a.53.53 0 0 0-.589.105c-.211.17-1.432.418-2.597.52-1.76.133-2.848.586-3.519.993a.502.502 0 0 0-.22-.338.486.486 0 0 0-.505-.022c-.014.006-.432.207-1.034.45l-1.737-.508.473-17.741 15.819 3.444-.264 9.208c0 .053.036.08.044.122-.904 2.302-.907 5.13.016 8.417.02.094 1.477 8.594-2.966 9.612l-.002.008c-.286.058-7.953 1.78-10.902 11.593-.008.02-.01.03-.014.036a24.91 24.91 0 0 0-.571 2.303c-.152.575-3.533 14.126 2.614 20.263.01.008.027.008.035.016.336 2.184.729 3.937.982 4.915l-8.78-2.278c-.003-.027.014-.05.008-.063a39.902 39.902 0 0 1-.384-1.858zm40.77-3.524c-.564 4.577-.795 9.821-.545 15.806l-29.915-7.781a23.84 23.84 0 0 1-.225-.89h3.076a.26.26 0 0 0 .264-.255.258.258 0 0 0-.264-.265h-3.2c-.066-.29-.14-.625-.214-.987h3.012a.259.259 0 1 0 0-.517h-3.114c-.063-.324-.132-.672-.195-1.026h3.073c.14 0 .256-.113.256-.26a.254.254 0 0 0-.256-.257H262.5c-.06-.359-.113-.76-.179-1.15h3.093a.262.262 0 0 0 .261-.262.265.265 0 0 0-.261-.263h-3.164c-.055-.42-.113-.848-.165-1.31h3.167c.14 0 .269-.102.269-.254 0-.147-.13-.252-.27-.252h-3.21a34.029 34.029 0 0 1-.115-1.241h3.122c.146 0 .264-.11.264-.257a.258.258 0 0 0-.264-.257h-3.153a36.47 36.47 0 0 1-.068-1.468h3.221a.268.268 0 0 0 .264-.266.264.264 0 0 0-.264-.262h-3.232c-.006-.401-.011-.805-.006-1.227h3.238a.257.257 0 0 0 .264-.26.258.258 0 0 0-.264-.252h-3.227c.011-.423.028-.846.052-1.271h3.175a.26.26 0 1 0 0-.52h-3.133c.038-.46.082-.901.134-1.355h3a.257.257 0 0 0 .263-.26.255.255 0 0 0-.264-.254h-2.927c.06-.417.118-.815.195-1.216h3.098c.143 0 .261-.11.261-.257a.272.272 0 0 0-.261-.268h-2.985c.071-.343.143-.694.228-1.034h3.243a.264.264 0 0 0 .264-.263.264.264 0 0 0-.264-.262h-3.09c.091-.324.177-.647.281-.962h3.458c.127 0 .22-.097.245-.219-.267-.1-.53-.196-.767-.301h-2.735c.15-.395.297-.799.47-1.186 2.556 1.553 6.38 2.92 11.946 2.92 3.224 0 7.023-.454 11.5-1.599.59-.18 5.105-1.57 7.236-2.626.002.307.016.592.013.91 0 .287.229.528.517.528h.011a.51.51 0 0 0 .506-.512 24.64 24.64 0 0 0-.03-1.705.424.424 0 0 0-.006-.227c-.143-3.093-.703-5.462-1.46-7.26l.479-2.63c.863.019 3.142.306 5.858 2.407-.193.962-.72 3.79-.545 5.357-2.435 4.365-4.615 10.347-5.73 18.447-6.834-.412-9.036-8.705-9.055-8.8a.51.51 0 0 0-.633-.372.522.522 0 0 0-.37.633c.03.09 2.39 9.064 9.911 9.57zm15.288 44.21c.83.21 2.664.696 4.646 1.5h-5.014l.368-1.5zm-12.345-3.218h6.059l.148-.52h-7.438a38.2 38.2 0 0 1-2.633-1.293c.019-.028.033-.07.052-.097h10.423l.154-.52h-10.31c.233-.467.445-.97.626-1.526h10.124l.146-.511h-10.097c.165-.567.308-1.164.432-1.764h10.179l.148-.514h-10.223c.11-.58.21-1.15.289-1.714h10.434l.149-.514h-10.503c.074-.561.129-1.098.181-1.59h8.439l-2.155-.52h-6.237c.05-.583.088-1.113.11-1.47l10.495 2.507-3.315 11.453c-1.798-.055-3.873-.686-5.677-1.407zm-12.573-3.718c.718-.384 3.632-1.565 7.922 1.208a4.29 4.29 0 0 1-.365.533.56.56 0 0 0-.118.432.5.5 0 0 0 .253.35c.241.147 5.827 3.382 10.255 3.639l-.665 2.28-19.404.008 2.122-8.45zm8.37-9.482h-5.992l.344-1.346 6.685 1.598-1.036-.252zm.009 9.753c-.352-.224-.682-.401-1.017-.572h1.206c.05-.172.121-.34.17-.52h-2.473c-2.713-1.136-4.783-.849-5.948-.442l.272-1.081h8.557c.038-.172.077-.346.104-.52H285l.442-1.758h8.403c.028-.174.053-.351.077-.523h-8.35l.431-1.7h8.123c.02-.174.038-.362.05-.52h-8.046l.398-1.592h7.774c0-.035.01-.085.01-.121l.017.003c-.082 1.462-.442 6.407-1.668 9.346zm-9.52-17.15 4.085.912-3.89 15.497c-.01.039-.024.066-.024.102l-2.196 8.75h-5.124l7.15-25.261zm-16.676 20.641c2.905 0 6.561-.572 10.47-2.513l-2.045 7.204-15.877.014 1.407-5.567c.803.26 2.996.862 6.045.862zm-5.525-2.076h11.943c.539-.163 1.07-.301 1.628-.514h-12.988c.98-.73 3.207-1.833 8.232-3.162a.494.494 0 0 0 .325-.263c.01-.011 0-.053.002-.077h7.85l.15-.528h-8.044l-.626-1.794h9.183l.14-.515h-9.502l-.588-1.678h10.571l.138-.52H268.463l-.556-1.592H279.812l.148-.525H267.731l-.52-1.487h13.164l.14-.478c-.021-.011-.032-.03-.07-.03H267.032l-.522-1.49h11.53l-2.16-.518h-9.546l-.523-1.498h3.846l-2.166-.511h-1.861l-.168-.492 15.32 3.67-3.461 12.21c-7.82 4.258-14.918 2.51-16.54 2.027.036-.058.085-.138.157-.235zm.3-2.015a.072.072 0 0 0 .057.028h.665c-.313.171-.615.345-.863.511l.14-.54zm.508-2.015h5.465c-1.688.506-3.093 1.009-4.206 1.523h-1.65l.39-1.523zm.569-2.278h5.992l-.178-.523h-5.68l.43-1.7h4.65l-.178-.52h-4.338l.404-1.592h3.376l-.184-.525h-3.06l.374-1.487h2.172l-.187-.509h-1.859l.383-1.49h.959l-.182-.517h-.646l.28-1.12 4.108 11.76c-.333.089-.655.177-.968.271.3-.094.61-.182.937-.27l-.002-.02h-7.046l.443-1.758zm45.993 10.836-.534 2.167h-5.118l5.39-18.612 4.082.907-.901 3.676c-.014.025-.047.034-.05.061-.005.03.017.05.011.08l-.602 2.447c-.093.044-.165.11-.165.218 0 .07.03.127.072.174l-2.177 8.868c-.006 0-.008 0-.008.006v.008zm20.198 2.214h-12.172c-2.735-1.429-5.717-2.228-6.888-2.504l.222-.904h4.475c.146 0 .259-.11.259-.257a.256.256 0 0 0-.259-.263h-4.348l.275-1.1h4.54a.271.271 0 0 0 .262-.263.27.27 0 0 0-.261-.265h-4.418l.27-1.064h4.47c.14 0 .255-.122.255-.271a.256.256 0 0 0-.256-.249h-4.346l.404-1.634h4.59a.256.256 0 1 0 0-.514h-4.463l.423-1.725h4.321a.256.256 0 1 0 0-.511h-4.194l.426-1.739 4.054.97c.044.011.074.022.13.022.115 0 .23-.044.318-.124l1.29-1.059h4.323a.263.263 0 0 0 .253-.257.255.255 0 0 0-.253-.262h-3.7l1.867-1.526h4.662c.14 0 .253-.11.253-.257a.249.249 0 0 0-.253-.257H321l1.237-1.023c.005 0 .01-.011.016-.011l.006-.006c.002-.005.002-.01.013-.022a.61.61 0 0 0 .163-.243c.005-.025-.009-.036-.009-.053.003-.027.025-.03.025-.05l.011-.176h4.354a.255.255 0 0 0 .259-.26.252.252 0 0 0-.259-.252h-4.32l.246-3.712a.536.536 0 0 0-.4-.542l-27.926-7.262c-.016-.304-.014-.589-.025-.882h4.074a.26.26 0 0 0 .264-.257.266.266 0 0 0-.264-.263h-4.084c-.02-.624-.039-1.249-.047-1.857h4.131a.264.264 0 0 0 .264-.263.264.264 0 0 0-.264-.262h-4.145c-.008-.537 0-1.062.006-1.595h4.14c.142 0 .263-.114.263-.246a.262.262 0 0 0-.264-.269h-4.137c.009-.605.006-1.23.025-1.818h4.112a.261.261 0 0 0 .264-.258.266.266 0 0 0-.264-.265h-4.095c.021-.688.065-1.349.101-2.018h4.374a.264.264 0 0 0 .258-.257c0-.155-.121-.26-.258-.26h-4.346c.04-.677.09-1.327.15-1.976h4.196a.265.265 0 0 0 .258-.266.258.258 0 0 0-.258-.257h-4.154c.074-.752.143-1.493.228-2.225h4.115a.248.248 0 0 0 .253-.254.249.249 0 0 0-.253-.252h-4.038c.085-.694.17-1.39.28-2.051h4.138a.262.262 0 0 0 .258-.265c0-.15-.113-.26-.258-.26h-4.05c.124-.752.259-1.487.405-2.2h4.208a.25.25 0 0 0 .258-.258.25.25 0 0 0-.258-.251h-4.112c.143-.68.3-1.333.459-1.98h4.299a.258.258 0 1 0 0-.514h-4.18c.156-.63.334-1.222.502-1.816h4.11c.137 0 .263-.113.263-.254a.27.27 0 0 0-.263-.266h-3.964c.198-.64.404-1.26.613-1.866H302c.14 0 .256-.105.256-.26a.251.251 0 0 0-.256-.25h-4.126c.248-.69.498-1.347.759-1.986h4.228c.145 0 .258-.11.258-.254a.26.26 0 0 0-.258-.265h-4.022c.27-.628.544-1.225.822-1.803h4.357a.262.262 0 0 0 .264-.26c0-.152-.116-.257-.264-.257h-4.101c.302-.627.613-1.208.931-1.763h4.6a.257.257 0 0 0 .263-.255.265.265 0 0 0-.264-.265h-4.299a40.16 40.16 0 0 1 1.064-1.708h4.398c.14 0 .261-.105.261-.252 0-.15-.121-.263-.261-.263h-4.055c.344-.503.69-.975 1.04-1.423h2.701a5.806 5.806 0 0 1-1.09-.514h-1.194c.182-.227.363-.456.545-.661.978 1.084 3.77 2.532 11.748 1.523.069 0 6.03-1.075 7.597 2.549.028.05 2.604 4.89.68 18.023a.524.524 0 0 0 .44.595c.016.008.049.008.073.008a.521.521 0 0 0 .514-.445c.413-2.847.622-5.294.693-7.422 4.173-.163 5.979 1.11 6.449 1.548-1.693 10.69-4.665 14.761-6.861 16.29-1.603 1.111-2.798.873-2.925.854-4.39-.16-8.1-10.156-9.159-13.999a.528.528 0 0 0-.649-.359.508.508 0 0 0-.349.636c.163.594 4.088 14.54 10.017 14.75.02 0 .223.047.558.047.63 0 1.743-.154 3.03-1.034.238-.16.491-.362.75-.586 3.565 1.195 6.63 4.813 7.394 5.761a15.08 15.08 0 0 0-.976 2.458l-.124.431c-1.68 5.816-5.558 19.281-4.95 28.417zm13.617-11.215a.483.483 0 0 0 .327.12c.033 0 .072-.012.107-.012l4.522-.926 2.81 12.02-20.35.013c-.036-.511-.05-1.039-.058-1.578h2.645a.262.262 0 0 0 .26-.254c0-.15-.115-.26-.26-.26h-2.645c0-.592.017-1.183.044-1.8h2.89c.14 0 .252-.113.252-.26a.252.252 0 0 0-.253-.257h-2.856c.039-.641.088-1.296.152-1.962h3.106a.261.261 0 0 0 .26-.26.27.27 0 0 0-.26-.266h-3.051a99.72 99.72 0 0 1 .23-1.877h3.186a.255.255 0 0 0 .259-.257.253.253 0 0 0-.259-.257h-3.12c.075-.503.157-1.006.237-1.515h3.329c.137 0 .255-.11.255-.265a.268.268 0 0 0-.255-.26h-3.244c.102-.6.217-1.191.324-1.797h3.362a.255.255 0 0 0 .256-.254c0-.15-.121-.26-.256-.26h-3.254c.123-.66.258-1.313.395-1.965h3.22c.145 0 .269-.116.269-.257a.273.273 0 0 0-.27-.266h-3.103c.126-.58.256-1.152.393-1.73h3.477c.149 0 .264-.11.264-.257 0-.15-.115-.255-.264-.255h-3.356c.146-.608.286-1.202.434-1.783h3.488c.121 0 .207-.094.242-.199l-.005-.105.275 4.21c.005.009.013.017.019.03 0 .017-.014.031-.011.053.027.105.093.191.17.26.009.008 0 .02.011.028h.006s.003.003.005.003l5.65 4.657zm10.118-2.399v.006s.003 0 .003.005l3.83 13.556h-5.122l-3.007-12.702-.847-3.745 4.071-.907 1.072 3.787zm16.41 12.193H356.76l-.39-1.39h11.346c-.107-.18-.19-.346-.297-.52H356.217l-.382-1.38h10.88c-.08-.173-.162-.34-.231-.519h-10.8l-.396-1.39H365.978c-.06-.183-.093-.346-.132-.52h-10.701l-.429-1.526h10.822c-.024-.171-.05-.345-.066-.511H354.573l-.503-1.764h11.38c.017-.166.03-.35.053-.514H353.927l-.483-1.714H365.827c.038-.174.085-.354.143-.514h-10.758l7.836-1.59h3.568c.099-.19.181-.362.286-.52h-1.306l1.669-.34c-1.482 2.386-3.854 8.366 2.627 16.103l-12.738.011-.247-.876h12.144c-.129-.169-.28-.349-.398-.526zm7.381 0h-5.943c-.365-.47-.695-.928-.995-1.39H375.692l-.14-.52h-6.809c-.288-.47-.533-.928-.761-1.38h7.232l-.135-.519H367.735a14.463 14.463 0 0 1-.553-1.39h7.556l-.131-.52h-7.579a12.042 12.042 0 0 1-.332-1.526h7.523l-.121-.511H366.616a10.566 10.566 0 0 1-.02-1.764h7.06l-.124-.514h-6.897c.074-.622.198-1.2.36-1.714H373.1l-.135-.514h-5.786c.231-.63.484-1.161.74-1.59h4.65l-.12-.52h-4.198c.204-.303.377-.513.487-.638l3.53-.721 4.285 17.12-5.407.002c-.022-.058-.017-.113-.066-.169-.204-.232-.374-.461-.572-.696h5.66l-.135-.526zm19.192-16.945 4.475 18.325-8.686.005c-2.007-9.34 2.499-16.149 4.211-18.33zm-12.985-.81h12.147c.143-.182.28-.34.368-.445l-.025-.069h-9.945l9.637-1.965.493 2.034c-1.127 1.294-7.161 8.813-4.948 19.585l-6.15.003-.25-.862h6.095a6.339 6.339 0 0 1-.086-.526h-6.157l-.393-1.39h6.388c-.014-.169-.025-.346-.036-.52h-6.5l-.396-1.38h6.855c0-.173-.003-.34 0-.519h-6.998l-.401-1.39h7.476c.011-.172.017-.346.05-.52h-7.675l-.431-1.526h8.312c.027-.171.06-.35.093-.511h-8.557l-.5-1.764h9.483c.053-.166.108-.345.154-.514h-9.788l-.484-1.714h10.877c.06-.18.135-.343.209-.514H379.92l-.454-1.59h12.425c.096-.182.184-.362.266-.52h-12.836l-.38-1.351h14.005c.113-.174.229-.354.336-.514h-14.495l-.222-.771 3.675-.747zm-4.827.454 5.319 18.675h-5.124l-5.596-22.402 4.076-.912 1.325 4.639zm-39.489 2.709 6.94-1.656h2.563l2.347-.528h-2.705l6.985-1.662h17.391l-.134-.517h-15.058l7.031-1.672h7.614l-.132-.509h-5.335l7.053-1.683h2.64l1.058-.238c.035-.008.063.014.099.014l-5.012 1.106a.501.501 0 0 0-.324.24.506.506 0 0 0-.063.404l1.135 4.561-18.9 3.831-.328-1.163h5.891l2.543-.517h-8.582l-.467-1.667h17.27l2.42-.495v-.033h-19.852a.51.51 0 0 0-.578-.326l-5.069 1.122a.5.5 0 0 0-.324.227.545.545 0 0 0-.069.398l.866 3.737-4.244.854-1.35-1.108h5.394l-.121-.506h-5.902l-2.04-1.686h7.54l-.115-.517h-8.054l-.022-.011zm76.218-32.846h-6.388c.033.177.072.34.09.52h6.279c-.011.461-.038.931-.074 1.407h-6.012c.02.176.039.348.069.522h5.91c-.041.462-.088.932-.135 1.41h-5.605c.017.168.017.343.025.514h5.525c-.055.47-.124.94-.19 1.407h-5.25c.009.177.025.337.028.528h5.137c-.082.462-.167.934-.264 1.404h-4.846c0 .172-.022.343-.027.52h4.774c-.093.42-.195.851-.307 1.28l-.542.127h-3.964c-.005.174-.005.343-.019.514h1.79l-1.897.454c.376-4.73-.176-9.291-1.163-13.4l6.779-4.97c.05.484.112 1.162.17 1.98h-2.787l-.707.514h3.527c.025.437.05.907.066 1.41h-5.509l-.709.52h6.229c.016.445.025.909.025 1.404h-6.817c.035.177.068.35.107.52h6.71c-.009.461-.014.928-.028 1.415zm.454-11.572h-2.023l-.817.526h2.84v1.404h-5.058l-.822.517h5.245l-1.922 1.407h-5.544l-.613.398c.006.041.02.088.03.121h5.421l-1.935 1.416h-3.065c.055.168.104.334.154.514h2.207l-1.883 1.38a56.971 56.971 0 0 0-1.028-3.434l8.813-5.592v1.343zm-14.39-32.467c2.257.194 4.002 1.322 4.032 1.333.196.135.473.11.64-.075.171-.171.202-.448.07-.644-.905-1.366-.864-2.314-.638-2.892.437.78 1.165 1.338 1.333 1.454 1.487.703 1.69 2.928 1.707 3.177-.264 1.545-.924 3.787-1.512 5.625-4.197-.257-6.503-2.142-6.514-2.15-3.904-3.602-3.164-7.273-3.129-7.431.105-.487.24-.625.273-.641.027-.014.123.03.192.08 1.347 2.178 3.496 2.137 3.546 2.164zm3.139-.27a10.295 10.295 0 0 0-3.1-.77c-.064-.016-1.647-.021-2.694-1.663l-.308-3.931 12.391-4.348v12.428c-.56.07-1.006.158-1.33.24-.157-.953-.652-2.703-2.128-3.408-.294-.216-1.135-.99-1.154-1.675a.508.508 0 0 0-.283-.462.466.466 0 0 0-.53.047c-.026.02-1.617 1.23-.864 3.541zm-5.847-35.08c.042.022 4.47 3.204 6.23 9.25.051.212.994 4.063 3.578 6.72-.957-.205-1.578-.241-1.603-.241-4.694-.882-6.418-3.853-6.42-3.876-.014-.016-.042-.016-.053-.035-.319-2.422-1.325-5.222-3.068-8.385.223-.489.262-.917.077-1.263-.159-.334-.483-.495-.764-.545a24.178 24.178 0 0 0-5.154.136c1.006-.835 2.037-1.993 2.719-3.544a9.959 9.959 0 0 1 4.458 1.783zm21.927 26.134c-1.586-5.435-5.19-8.194-7.99-9.55a.95.95 0 0 0-.371-.247c-4.02-1.443-5.525-7.295-5.594-7.577-1.985-6.825-6.902-10.236-6.933-10.256-2.075-1.473-4.425-2.222-7-2.222-2.356 0-4.451.622-5.966 1.247-.863-1.858-3.38-5.241-10.283-5.554-.074-.005-.288-.03-.61-.03-1.146 0-3.403.279-5.67 2.128a9.208 9.208 0 0 0-.63.564V96.858c0-.113-.014-.21-.044-.31a3.653 3.653 0 0 0 .896-2.366 3.767 3.767 0 0 0-3.758-3.773c-2.064 0-3.74 1.69-3.74 3.773 0 .72.222 1.418.623 2.027-.11.047-.209.094-.308.135-.022 0-.035-.003-.046-.003l-.212.025c-.08.017-.099.064-.231-.039-.935-.74-1.369-4.207-1.369-6.324 0-.108-.014-.213-.033-.313.418-.857.6-1.741.536-2.637-.096-1.531-.877-2.947-2.328-4.199l-.072-.066c-.167-.163-.755-.785-.497-1.435.16-.484.047-1-.322-1.385a1.295 1.295 0 0 0-1.426-.238c-.22.097-1.861.902-2.664 2.756-.23-.237-.668-.782-.456-1.335a1.326 1.326 0 0 0-.305-1.407c-.374-.365-1.004-.44-1.355-.279-.009 0-.987.373-1.853 1.35a8.96 8.96 0 0 0-1.105-1.143l-.072-.06c-.156-.155-.766-.78-.53-1.38a1.307 1.307 0 0 0-.286-1.426 1.326 1.326 0 0 0-1.38-.29l-.179.071-.024.03c-.22.122-.432.25-.64.39-.388-.815-.988-1.572-1.815-2.277 0-.011-.836-.71-.558-1.449a1.295 1.295 0 0 0-1.809-1.617c-.23.122-.62.373-1.041.73-.358-.589-.85-1.156-1.477-1.684-.008 0-.662-.55-.467-1.042a1.335 1.335 0 0 0-.335-1.462 1.408 1.408 0 0 0-.907-.326c-.149-.783-.46-1.595-.924-2.405-.261-.556.047-.727.2-.824.44-.243.696-.735.655-1.23-.03-.514-.385-.976-.836-1.114a5.849 5.849 0 0 0-1.566-.34c-.113-.846-.495-1.913-1.617-2.737-.442-.312-1.135-.304-1.553.008-1.121.808-1.514 1.88-1.627 2.729-.863.063-1.528.32-1.528.32-.484.16-.836.62-.863 1.126-.036.503.211.995.643 1.235.129.08.473.277.242.758-.484.86-.806 1.686-.96 2.474a1.301 1.301 0 0 0-1.295 1.777c.193.503-.464 1.053-.483 1.081-.621.52-1.11 1.078-1.463 1.656-.404-.34-.788-.6-1.047-.73h.003a1.283 1.283 0 0 0-1.484.205c-.39.37-.512.934-.32 1.415.284.74-.571 1.454-.604 1.482-.786.688-1.38 1.443-1.765 2.247a4.536 4.536 0 0 0-.764-.448l-.088-.047a1.32 1.32 0 0 0-1.388.296 1.316 1.316 0 0 0-.283 1.388c.272.713-.5 1.393-.6 1.484-.412.351-.777.73-1.093 1.128-.841-.94-1.773-1.327-1.815-1.346-.467-.185-1.003-.102-1.423.296-.35.359-.46.906-.28 1.379.205.545-.19 1.075-.443 1.343-.762-1.758-2.263-2.562-2.683-2.75v-.006c-.451-.215-1.009-.138-1.44.26-.355.37-.473.91-.278 1.394.286.732-.566 1.44-.605 1.476-1.446 1.252-2.22 2.662-2.312 4.185-.052.746.06 1.482.338 2.2-.159.221-.239.479-.239.758 0 1.902-.357 4.904-1.105 6.026l-.209-1.847c0-2.084-1.68-3.773-3.738-3.773-2.07 0-3.752 1.69-3.752 3.773 0 .874.33 1.72.913 2.4-.02.091-.033.182-.033.276v40.37h-1.765c-.31 0-.583.103-.808.28-.377-1.067-.877-2.104-1.529-3.041-1.652-2.37-4.051-3.793-7.166-4.205-.057-.016-.36-.027-.83-.027-2.292 0-7.894.49-10.288 5.078l-.039.086c-.082.215-.957 2.557-1.196 5.553l-3.361-6.466c-.303-.868-1.85-4.398-7.095-4.398-1.102 0-2.304.158-3.521.467-.226.04-5.547.943-8.585 5.64-2.215 3.414-2.625 7.87-1.226 13.169.003.044 1.059 4.61 5.605 6.493-15.39 8.559-10.937 31.98-10.684 33.22.123 1.27.753 2.302 1.83 3.012 1.309.85 3.282 1.178 6.136.99-.36 5.338-1.347 22.844.657 33.426l-3.972-1.03a1.263 1.263 0 0 0-1.166.218c-.313.248-.497.63-.497 1.033v4.423c0 .216.046.412.118.531l3.74 8.509c.155.373.49.647.883.752l2.81.669 1.102 14.045-3.271 11.724h-.828c-.714 0-1.294.58-1.294 1.299v5.023c0 .707.58 1.299 1.294 1.299h158.435a1.3 1.3 0 0 0 1.292-1.3v-5.108c0-.34-.127-.663-.39-.948a1.337 1.337 0 0 0-.902-.345h-1.213l-5.874-21.507 10.237-2.084c.434-.089.786-.396.945-.807l3.5-9.211c.063-.158.096-.324.096-.495v-4.434c0-.4-.173-.774-.487-1.014a1.244 1.244 0 0 0-.934-.28c1.432-6.94.854-14.048.613-16.312l.214-.155c.344-.243.544-.638.544-1.067v-4.528a.93.93 0 0 0-.085-.39.96.96 0 0 0-.038-.146l-.094-.337-.173-.064-1.185-1.377v-.005c-.514-7.707-.047-12.744.215-14.75 3.45-.332 4.785-1.23 4.785-1.23 4.665-2.784.484-18.066-.407-21.098z"/><path d="M342.608 190.25c-.602.056-1.056-.192-1.075-.2a.35.35 0 0 0-.486.13.382.382 0 0 0 .13.507c.024.014.533.313 1.248.313.08 0 .166-.01.253-.01a.379.379 0 0 0 .32-.41.36.36 0 0 0-.39-.33M324.384 193.752c.642-.09 1.082.187 1.095.197a.338.338 0 0 0 .472-.116.406.406 0 0 0-.11-.517c-.032-.016-.647-.417-1.543-.292-.183.024-.319.207-.295.411.021.209.196.35.38.317M287.35 181a.388.388 0 0 0 .2-.059c.547-.342 1.072-.325 1.074-.325a.32.32 0 0 0 .376-.287c.007-.168-.14-.31-.332-.32-.022-.02-.767-.046-1.521.433-.154.099-.197.293-.082.426a.358.358 0 0 0 .286.132M265.332 144c.084 0 .175-.04.246-.145.526-.807 1.144-.962 1.151-.962.173-.035.294-.267.267-.512-.028-.253-.204-.415-.372-.375-.035.01-.847.203-1.542 1.25a.581.581 0 0 0 .028.64.28.28 0 0 0 .222.104M377.504 181a.624.624 0 0 0 .35-.1c.19-.132.197-.351.008-.487-.693-.505-.88-1.124-.88-1.138-.045-.18-.31-.308-.585-.267-.268.036-.442.22-.387.407.006.029.237.823 1.14 1.473a.565.565 0 0 0 .354.112M286.038 154.133c-.314.266-1.302.396-1.88.34-.16.034-.333.072-.452.182-.503.506-1.076.25-1.185.2a.581.581 0 0 0-.4-.062c-.719.12-1.048.12-1.18.107-.097-.077-.222-.077-.368-.118-.326.002-.573.242-.573.517 0 .17.116.349.247.442.228.176.628.298 1.902.1.228.093.527.159.865.159.424 0 .918-.121 1.363-.481.57-.011 1.8-.088 2.44-.633a.483.483 0 0 0 .028-.731.64.64 0 0 0-.807-.022M282.38 157.058c-.422.263-.786.129-.818.123a.403.403 0 0 0-.523.192.374.374 0 0 0 .2.511c.124.062.342.116.595.116.295 0 .636-.07.978-.281.19-.127.244-.36.124-.543a.42.42 0 0 0-.555-.118M285.544 147.068c-.216.21-.857.252-1.24.222-.157-.033-.296.127-.303.325-.012.198.107.364.264.376.032.007.129.009.27.009.373 0 1.009-.049 1.352-.37.127-.118.148-.338.057-.491-.096-.157-.278-.181-.4-.071M279.941 147.142c-.092-.157-.27-.187-.397-.073-.214.2-.853.249-1.238.222-.146-.037-.29.135-.306.326-.004.192.112.359.269.374.031 0 .132.009.267.009.369 0 1.004-.047 1.35-.365.129-.117.15-.336.055-.493"/><path d="M278.914 145.203c.23.537.94 2.548.63 5.821a.509.509 0 0 0 .268.481c.092.05.943.495 1.668.495.28 0 .52-.22.52-.503 0-.276-.24-.5-.52-.5-.24 0-.589-.114-.866-.226.302-3.938-.788-6.07-.838-6.156a.415.415 0 0 0-.212-.22c-2.008-1.03-5.114.273-5.252.33a.496.496 0 0 0-.266.664.55.55 0 0 0 .694.258c.728-.311 2.865-.987 4.174-.444M280.713 145c.108 0 .224-.014.329-.039.026-.003 2.526-.575 5.057-.255.38.045.758-.04.877-.207.097-.156-.108-.326-.478-.371-3.094-.405-6.016.278-6.132.305-.347.079-.463.262-.28.413.127.098.37.154.627.154M369.967 156.138c-.235-.19-.592-.186-.802.024a.468.468 0 0 0 .018.728c.64.536 1.878.615 2.445.634.436.345.93.476 1.363.476.335 0 .643-.08.869-.161 1.28.194 1.661.073 1.9-.09.127-.102.24-.288.24-.438.003-.293-.24-.528-.561-.528a.623.623 0 0 0-.378.123c-.119.016-.457.016-1.17-.115a.582.582 0 0 0-.397.071c-.116.044-.695.301-1.198-.208-.113-.106-.284-.142-.448-.16-.586.037-1.577-.088-1.881-.356"/><path d="M374.445 157.184c-.021.004-.404.148-.827-.119a.406.406 0 0 0-.554.11.385.385 0 0 0 .122.541c.344.214.682.284.977.284.254 0 .47-.055.605-.113.199-.084.284-.31.199-.501a.41.41 0 0 0-.522-.202M372.701 147.286c-.39.032-1.029-.015-1.242-.217-.127-.114-.307-.084-.4.071-.095.154-.073.38.053.495.344.318.983.365 1.354.365.137 0 .235-.004.268-.011.16-.01.279-.178.265-.37-.01-.198-.148-.387-.298-.333"/><path d="M369.904 147.7c2.508-.324 5.032.255 5.054.262.097.022.224.038.336.038.254 0 .489-.064.612-.157.202-.15.064-.333-.272-.411-.124-.027-3.031-.706-6.122-.306-.385.046-.594.218-.482.378.112.155.49.248.874.197M333.033 112.138c-.314.272-1.265.39-1.883.354-.165.027-.335.058-.436.178a1.002 1.002 0 0 1-1.182.192c-.128-.06-.28-.088-.411-.06-.722.118-1.048.118-1.18.107-.097-.074-.207-.096-.38-.115-.311 0-.564.235-.561.52.003.154.119.346.25.44.231.156.624.29 1.895.09.232.09.527.156.865.156.427 0 .914-.12 1.356-.474.588 0 1.81-.083 2.459-.631a.5.5 0 0 0 .027-.735.638.638 0 0 0-.82-.022"/><path d="M329.377 114.063c-.42.262-.793.124-.816.114a.398.398 0 0 0-.52.192c-.1.2-.009.43.192.518.13.061.349.113.601.113.289 0 .637-.07.986-.289a.383.383 0 0 0 .118-.534.416.416 0 0 0-.56-.114M334.546 104.07c-.218.202-.862.25-1.24.222-.149-.028-.292.129-.306.328-.007.188.108.356.266.36.03.009.131.02.276.02.365 0 1.004-.05 1.345-.363a.41.41 0 0 0 .056-.492c-.095-.162-.281-.19-.397-.075M326.943 105.138c-.092-.151-.27-.187-.4-.064-.214.201-.86.246-1.241.22-.154-.032-.29.129-.301.322-.012.198.107.365.265.373.028.005.13.011.264.011.37 0 1.012-.048 1.357-.365.126-.116.15-.333.056-.497"/><path d="M327.912 105.2c.23.538.939 2.549.634 5.826-.02.195.083.38.258.48.105.058.947.494 1.686.494.275 0 .51-.22.51-.495a.506.506 0 0 0-.51-.503c-.249 0-.6-.12-.877-.228.307-3.948-.784-6.076-.834-6.172a.481.481 0 0 0-.222-.213c-2.005-1.021-5.12.285-5.245.338a.493.493 0 0 0-.266.662c.103.25.421.365.684.256.737-.311 2.875-.987 4.182-.444M335.492 103.128c-3.106-.404-6 .274-6.138.303-.328.086-.455.267-.265.413.127.1.373.156.627.156.104 0 .23-.014.328-.039.022-.004 2.513-.579 5.045-.257.377.055.765-.037.88-.201.112-.16-.093-.333-.477-.375M394.815 160.153c-.207.195-1.205.413-1.796.506-.18.023-.32.082-.391.16-.327.357-1.022.318-1.159.306-.147-.011-.313 0-.447.032-.694.186-1.032.248-1.172.258a1.293 1.293 0 0 0-.43-.004c-.335.055-.505.22-.378.377.06.077.25.163.424.189.1.015.187.023.33.023.308 0 .792-.063 1.683-.29.628.02 1.62-.07 2.17-.54.595-.095 1.844-.352 2.278-.741.16-.147.05-.32-.26-.396-.301-.073-.692-.02-.852.12"/><path d="M395.238 160.12c-.332.295-.757.276-.78.282-.231-.031-.438.11-.456.271-.023.162.148.308.382.32.034 0 .068.007.107.007.354 0 .965-.11 1.422-.515.136-.133.113-.319-.075-.425-.193-.098-.46-.074-.6.06M393.436 152.2c-.165.356-.808.746-1.21.91-.168.074-.26.31-.214.555.036.199.16.335.295.335a.12.12 0 0 0 .079-.024c.127-.043 1.213-.498 1.562-1.276.095-.206.057-.489-.087-.625-.135-.137-.326-.082-.425.124M385.439 154.196c-.171.363-.81.751-1.21.921-.166.065-.266.31-.216.554.039.197.164.329.297.329a.358.358 0 0 0 .08-.014c.121-.056 1.208-.506 1.56-1.286.09-.201.055-.484-.083-.623-.145-.137-.332-.087-.428.12"/><path d="M389.285 158.918c.048.016.33.082.675.082.242 0 .516-.038.754-.154.222-.11.336-.439.265-.76-.084-.303-.326-.476-.546-.36-.185.08-.484.089-.731.067-.87-4.521-2.306-6.507-2.367-6.586-.07-.088-.145-.155-.236-.16-1.819-.426-3.876 2.231-3.964 2.338a.772.772 0 0 0-.018.845c.158.233.426.24.6.029.487-.63 1.926-2.173 3.11-2.065.329.52 1.445 2.51 2.127 6.28.03.233.17.406.33.444M388.77 151c.198 0 .416-.039.557-.12.025-.015 2.11-1.092 4.942-1.151.428-.012.743-.178.73-.373-.015-.207-.358-.335-.79-.356-3.502.077-5.918 1.34-6.023 1.391-.275.15-.238.375.064.512.141.064.327.097.52.097M336.626 166.025l-12.625 8.865-12.62-8.865 12.62-8.899 12.625 8.899zm-12.9-9.964-13.506 9.548a.5.5 0 0 0-.22.424c0 .18.079.342.22.432l13.454 9.441c.081.061.176.094.272.094.021 0 .034-.017.055-.017.024 0 .032.017.058.017.1 0 .188-.033.27-.094l13.454-9.44a.501.501 0 0 0 .217-.433.497.497 0 0 0-.217-.424l-13.507-9.548c-.031-.022-.065-.006-.1-.022a.35.35 0 0 0-.175-.039.382.382 0 0 0-.18.039c-.03.016-.066 0-.094.022zM364.975 160.222h-3.738c-.712.138-1.466.333-2.237.555h7a63.086 63.086 0 0 0-1.025-.554"/><path d="M365.665 160.788c.177 0 .335-.126.335-.291 0-.159-.158-.285-.335-.285h-5.788c-.317.183-.6.369-.877.576h6.665zM354.615 197.73h11.37c.019-.177.016-.319.013-.46H354c.173.126.354.27.615.46M280 134.497c0-.153-.057-.279-.128-.279h-.943c-.3.126-.615.294-.929.564h1.872c.07 0 .128-.126.128-.285M278 135.497c0-.153-.055-.282-.12-.282h-1.558c-.113.171-.22.369-.322.57h1.88c.065 0 .12-.135.12-.288M278 137.5c0-.159-.054-.282-.126-.282h-1.755c-.019.087-.043.153-.066.228a4.36 4.36 0 0 1-.053.336h1.874c.072 0 .126-.123.126-.282M277 142.503c0-.156-.06-.285-.135-.285h-1.806c-.02.186-.038.375-.059.564h1.865c.076 0 .135-.126.135-.279M270.874 194.221h-1.34a8.87 8.87 0 0 0-.534.558h1.874c.07 0 .126-.114.126-.273 0-.15-.057-.285-.126-.285M270.605 196.216h-5.509c-.365.18-.722.357-1.096.567h6.605c.219 0 .395-.12.395-.278 0-.156-.176-.288-.395-.288M269.615 197.22h-5.865c-.258.177-.512.365-.75.56h6.615c.221 0 .385-.123.385-.279 0-.165-.164-.281-.385-.281M268.623 201.216h-6.067c-.187.18-.373.37-.556.567h6.623c.203 0 .377-.131.377-.278 0-.168-.174-.288-.377-.288"/><path d="M268.598 201.22h-6.15c-.16.177-.302.38-.448.56h6.598c.222 0 .402-.123.402-.281 0-.154-.18-.28-.402-.28M263.881 202.22h-1.777c-.036.18-.071.357-.104.56h1.881c.066 0 .119-.125.119-.285 0-.153-.053-.275-.119-.275M264.602 205.216h-6.482c-.041.084-.091.156-.12.228.075.088.187.202.315.34h6.287c.207 0 .398-.138.398-.28 0-.161-.19-.287-.398-.287M340.86 223.221H339v.558h1.86c.073 0 .14-.132.14-.279 0-.162-.067-.279-.14-.279M341 228.497c0-.153-.067-.279-.151-.279H339c.008.186.016.375.026.564h1.823c.084 0 .151-.12.151-.285"/><path d="M340.845 228.22H339c.023.189.052.38.072.56h1.773c.082 0 .155-.12.155-.275 0-.16-.073-.285-.155-.285M379 205.5c0-.165-.16-.285-.367-.285H372v.57h6.633c.208 0 .367-.126.367-.285M379 208.491c0-.15-.159-.27-.366-.27h-6.631c.02.189-.012.375 0 .558h6.631c.207 0 .366-.12.366-.288M379 210.503c0-.153-.162-.285-.373-.285H372c.008.192.057.387.093.564h6.534c.21 0 .373-.12.373-.279M378.6 211.22H372c.033.191.066.371.095.56h6.506c.222 0 .399-.117.399-.273 0-.159-.177-.287-.4-.287M389 142.506c0-.156-.057-.288-.131-.288h-1.23a6.429 6.429 0 0 0-.639.564h1.869c.074 0 .131-.114.131-.276M385.885 142.784c.064 0 .115-.114.115-.28 0-.158-.051-.287-.115-.287h-1.68c-.024.062-.055.125-.084.189l-.001.032c-.004.01-.012.01-.02.034-.036.101-.065.203-.1.311h1.885zM389.634 165.214h-6.423a1.82 1.82 0 0 1-.096.065c-.008.01-.031.01-.035.019l-.08.488h6.634c.19 0 .366-.129.366-.276 0-.17-.175-.296-.366-.296M389.611 166.221h-6.533l-.078.543.045.015h6.566c.217 0 .389-.126.389-.279 0-.159-.172-.279-.389-.279"/><path d="M329.504 59.575c-69.436 0-125.918 56.498-125.918 125.925 0 69.427 56.482 125.908 125.918 125.908 69.422 0 125.915-56.481 125.915-125.908 0-69.427-56.493-125.925-125.915-125.925m0 254.425C258.645 314 201 256.353 201 185.5 201 114.647 258.645 57 329.504 57 400.358 57 458 114.647 458 185.5c0 70.853-57.642 128.5-128.496 128.5"/></g></g></g></svg>